{
	"asset":{
		"generator":"Khronos glTF Blender I/O v4.0.44",
		"version":"2.0"
	},
	"scene":0,
	"scenes":[
		{
			"name":"Scene",
			"nodes":[
				0
			]
		}
	],
	"nodes":[
		{
			"mesh":0,
			"name":"Birch_1"
		}
	],
	"materials":[
		{
			"doubleSided":true,
			"name":"Bark_Birch",
			"normalTexture":{
				"index":0
			},
			"pbrMetallicRoughness":{
				"baseColorTexture":{
					"index":1
				},
				"metallicFactor":0
			}
		},
		{
			"alphaCutoff":0.20000000298023224,
			"alphaMode":"MASK",
			"doubleSided":true,
			"name":"Leaves_Birch",
			"pbrMetallicRoughness":{
				"baseColorTexture":{
					"index":2
				},
				"metallicFactor":0
			}
		}
	],
	"meshes":[
		{
			"name":"tree.003",
			"primitives":[
				{
					"attributes":{
						"COLOR_0":0,
						"POSITION":1,
						"NORMAL":2,
						"TEXCOORD_0":3
					},
					"indices":4,
					"material":0
				},
				{
					"attributes":{
						"COLOR_0":5,
						"POSITION":6,
						"NORMAL":7,
						"TEXCOORD_0":8
					},
					"indices":9,
					"material":1
				}
			]
		}
	],
	"textures":[
		{
			"sampler":0,
			"source":0
		},
		{
			"sampler":0,
			"source":1
		},
		{
			"sampler":0,
			"source":2
		}
	],
	"images":[
		{
			"mimeType":"image/png",
			"name":"Bark_BirchTree_Normal",
			"uri":"Bark_BirchTree_Normal.png"
		},
		{
			"mimeType":"image/png",
			"name":"Bark_BirchTree",
			"uri":"Bark_BirchTree.png"
		},
		{
			"mimeType":"image/png",
			"name":"Leaves_Birch_C",
			"uri":"Leaves_Birch_C.png"
		}
	],
	"accessors":[
		{
			"bufferView":0,
			"componentType":5126,
			"count":7597,
			"type":"VEC4"
		},
		{
			"bufferView":1,
			"componentType":5126,
			"count":7597,
			"max":[
				2.8055684566497803,
				11.920513153076172,
				2.158252239227295
			],
			"min":[
				-2.412018060684204,
				-0.4285776913166046,
				-3.071343183517456
			],
			"type":"VEC3"
		},
		{
			"bufferView":2,
			"componentType":5126,
			"count":7597,
			"type":"VEC3"
		},
		{
			"bufferView":3,
			"componentType":5126,
			"count":7597,
			"type":"VEC2"
		},
		{
			"bufferView":4,
			"componentType":5123,
			"count":14526,
			"type":"SCALAR"
		},
		{
			"bufferView":5,
			"componentType":5126,
			"count":3072,
			"type":"VEC4"
		},
		{
			"bufferView":6,
			"componentType":5126,
			"count":3072,
			"max":[
				3.4271676540374756,
				13.293113708496094,
				2.8316140174865723
			],
			"min":[
				-3.0056581497192383,
				4.435910701751709,
				-3.710219144821167
			],
			"type":"VEC3"
		},
		{
			"bufferView":7,
			"componentType":5126,
			"count":3072,
			"type":"VEC3"
		},
		{
			"bufferView":8,
			"componentType":5126,
			"count":3072,
			"type":"VEC2"
		},
		{
			"bufferView":9,
			"componentType":5123,
			"count":4608,
			"type":"SCALAR"
		}
	],
	"bufferViews":[
		{
			"buffer":0,
			"byteLength":121552,
			"byteOffset":0,
			"target":34962
		},
		{
			"buffer":0,
			"byteLength":91164,
			"byteOffset":121552,
			"target":34962
		},
		{
			"buffer":0,
			"byteLength":91164,
			"byteOffset":212716,
			"target":34962
		},
		{
			"buffer":0,
			"byteLength":60776,
			"byteOffset":303880,
			"target":34962
		},
		{
			"buffer":0,
			"byteLength":29052,
			"byteOffset":364656,
			"target":34963
		},
		{
			"buffer":0,
			"byteLength":49152,
			"byteOffset":393708,
			"target":34962
		},
		{
			"buffer":0,
			"byteLength":36864,
			"byteOffset":442860,
			"target":34962
		},
		{
			"buffer":0,
			"byteLength":36864,
			"byteOffset":479724,
			"target":34962
		},
		{
			"buffer":0,
			"byteLength":24576,
			"byteOffset":516588,
			"target":34962
		},
		{
			"buffer":0,
			"byteLength":9216,
			"byteOffset":541164,
			"target":34963
		}
	],
	"samplers":[
		{
			"magFilter":9729,
			"minFilter":9987
		}
	],
	"buffers":[
		{
			"byteLength":550380,
			"uri":"Birch_1.bin"
		}
	]
}
