{
	"asset":{
		"generator":"Khronos glTF Blender I/O v4.0.44",
		"version":"2.0"
	},
	"scene":0,
	"scenes":[
		{
			"name":"Scene",
			"nodes":[
				0
			]
		}
	],
	"nodes":[
		{
			"mesh":0,
			"name":"Birch_3"
		}
	],
	"materials":[
		{
			"doubleSided":true,
			"name":"Bark_Birch",
			"normalTexture":{
				"index":0
			},
			"pbrMetallicRoughness":{
				"baseColorTexture":{
					"index":1
				},
				"metallicFactor":0
			}
		},
		{
			"alphaCutoff":0.20000000298023224,
			"alphaMode":"MASK",
			"doubleSided":true,
			"name":"Leaves_Birch",
			"pbrMetallicRoughness":{
				"baseColorTexture":{
					"index":2
				},
				"metallicFactor":0
			}
		}
	],
	"meshes":[
		{
			"name":"tree.005",
			"primitives":[
				{
					"attributes":{
						"COLOR_0":0,
						"POSITION":1,
						"NORMAL":2,
						"TEXCOORD_0":3
					},
					"indices":4,
					"material":0
				},
				{
					"attributes":{
						"COLOR_0":5,
						"POSITION":6,
						"NORMAL":7,
						"TEXCOORD_0":8
					},
					"indices":9,
					"material":1
				}
			]
		}
	],
	"textures":[
		{
			"sampler":0,
			"source":0
		},
		{
			"sampler":0,
			"source":1
		},
		{
			"sampler":0,
			"source":2
		}
	],
	"images":[
		{
			"mimeType":"image/png",
			"name":"Bark_BirchTree_Normal",
			"uri":"Bark_BirchTree_Normal.png"
		},
		{
			"mimeType":"image/png",
			"name":"Bark_BirchTree",
			"uri":"Bark_BirchTree.png"
		},
		{
			"mimeType":"image/png",
			"name":"Leaves_Birch_C",
			"uri":"Leaves_Birch_C.png"
		}
	],
	"accessors":[
		{
			"bufferView":0,
			"componentType":5126,
			"count":6359,
			"type":"VEC4"
		},
		{
			"bufferView":1,
			"componentType":5126,
			"count":6359,
			"max":[
				4.2283711433410645,
				12.36229133605957,
				1.8531852960586548
			],
			"min":[
				-2.045778512954712,
				-0.4285776913166046,
				-3.2668685913085938
			],
			"type":"VEC3"
		},
		{
			"bufferView":2,
			"componentType":5126,
			"count":6359,
			"type":"VEC3"
		},
		{
			"bufferView":3,
			"componentType":5126,
			"count":6359,
			"type":"VEC2"
		},
		{
			"bufferView":4,
			"componentType":5123,
			"count":12879,
			"type":"SCALAR"
		},
		{
			"bufferView":5,
			"componentType":5126,
			"count":3056,
			"type":"VEC4"
		},
		{
			"bufferView":6,
			"componentType":5126,
			"count":3056,
			"max":[
				4.819523334503174,
				12.926748275756836,
				2.6471641063690186
			],
			"min":[
				-3.152590274810791,
				5.477759838104248,
				-4.073222637176514
			],
			"type":"VEC3"
		},
		{
			"bufferView":7,
			"componentType":5126,
			"count":3056,
			"type":"VEC3"
		},
		{
			"bufferView":8,
			"componentType":5126,
			"count":3056,
			"type":"VEC2"
		},
		{
			"bufferView":9,
			"componentType":5123,
			"count":4584,
			"type":"SCALAR"
		}
	],
	"bufferViews":[
		{
			"buffer":0,
			"byteLength":101744,
			"byteOffset":0,
			"target":34962
		},
		{
			"buffer":0,
			"byteLength":76308,
			"byteOffset":101744,
			"target":34962
		},
		{
			"buffer":0,
			"byteLength":76308,
			"byteOffset":178052,
			"target":34962
		},
		{
			"buffer":0,
			"byteLength":50872,
			"byteOffset":254360,
			"target":34962
		},
		{
			"buffer":0,
			"byteLength":25758,
			"byteOffset":305232,
			"target":34963
		},
		{
			"buffer":0,
			"byteLength":48896,
			"byteOffset":330992,
			"target":34962
		},
		{
			"buffer":0,
			"byteLength":36672,
			"byteOffset":379888,
			"target":34962
		},
		{
			"buffer":0,
			"byteLength":36672,
			"byteOffset":416560,
			"target":34962
		},
		{
			"buffer":0,
			"byteLength":24448,
			"byteOffset":453232,
			"target":34962
		},
		{
			"buffer":0,
			"byteLength":9168,
			"byteOffset":477680,
			"target":34963
		}
	],
	"samplers":[
		{
			"magFilter":9729,
			"minFilter":9987
		}
	],
	"buffers":[
		{
			"byteLength":486848,
			"uri":"Birch_3.bin"
		}
	]
}
