{
	"asset":{
		"generator":"Khronos glTF Blender I/O v4.0.44",
		"version":"2.0"
	},
	"scene":0,
	"scenes":[
		{
			"name":"Scene",
			"nodes":[
				0
			]
		}
	],
	"nodes":[
		{
			"mesh":0,
			"name":"Birch_4"
		}
	],
	"materials":[
		{
			"doubleSided":true,
			"name":"Bark_Birch",
			"normalTexture":{
				"index":0
			},
			"pbrMetallicRoughness":{
				"baseColorTexture":{
					"index":1
				},
				"metallicFactor":0
			}
		},
		{
			"alphaCutoff":0.20000000298023224,
			"alphaMode":"MASK",
			"doubleSided":true,
			"name":"Leaves_Birch",
			"pbrMetallicRoughness":{
				"baseColorTexture":{
					"index":2
				},
				"metallicFactor":0
			}
		}
	],
	"meshes":[
		{
			"name":"tree.006",
			"primitives":[
				{
					"attributes":{
						"COLOR_0":0,
						"POSITION":1,
						"NORMAL":2,
						"TEXCOORD_0":3
					},
					"indices":4,
					"material":0
				},
				{
					"attributes":{
						"COLOR_0":5,
						"POSITION":6,
						"NORMAL":7,
						"TEXCOORD_0":8
					},
					"indices":9,
					"material":1
				}
			]
		}
	],
	"textures":[
		{
			"sampler":0,
			"source":0
		},
		{
			"sampler":0,
			"source":1
		},
		{
			"sampler":0,
			"source":2
		}
	],
	"images":[
		{
			"mimeType":"image/png",
			"name":"Bark_BirchTree_Normal",
			"uri":"Bark_BirchTree_Normal.png"
		},
		{
			"mimeType":"image/png",
			"name":"Bark_BirchTree",
			"uri":"Bark_BirchTree.png"
		},
		{
			"mimeType":"image/png",
			"name":"Leaves_Birch_C",
			"uri":"Leaves_Birch_C.png"
		}
	],
	"accessors":[
		{
			"bufferView":0,
			"componentType":5126,
			"count":6350,
			"type":"VEC4"
		},
		{
			"bufferView":1,
			"componentType":5126,
			"count":6350,
			"max":[
				2.5928025245666504,
				10.423952102661133,
				3.0175139904022217
			],
			"min":[
				-2.343264102935791,
				-0.4285776913166046,
				-2.4500553607940674
			],
			"type":"VEC3"
		},
		{
			"bufferView":2,
			"componentType":5126,
			"count":6350,
			"type":"VEC3"
		},
		{
			"bufferView":3,
			"componentType":5126,
			"count":6350,
			"type":"VEC2"
		},
		{
			"bufferView":4,
			"componentType":5123,
			"count":12768,
			"type":"SCALAR"
		},
		{
			"bufferView":5,
			"componentType":5126,
			"count":3056,
			"type":"VEC4"
		},
		{
			"bufferView":6,
			"componentType":5126,
			"count":3056,
			"max":[
				3.188059091567993,
				11.192404747009277,
				3.5388429164886475
			],
			"min":[
				-3.0476174354553223,
				4.711092472076416,
				-3.103534460067749
			],
			"type":"VEC3"
		},
		{
			"bufferView":7,
			"componentType":5126,
			"count":3056,
			"type":"VEC3"
		},
		{
			"bufferView":8,
			"componentType":5126,
			"count":3056,
			"type":"VEC2"
		},
		{
			"bufferView":9,
			"componentType":5123,
			"count":4584,
			"type":"SCALAR"
		}
	],
	"bufferViews":[
		{
			"buffer":0,
			"byteLength":101600,
			"byteOffset":0,
			"target":34962
		},
		{
			"buffer":0,
			"byteLength":76200,
			"byteOffset":101600,
			"target":34962
		},
		{
			"buffer":0,
			"byteLength":76200,
			"byteOffset":177800,
			"target":34962
		},
		{
			"buffer":0,
			"byteLength":50800,
			"byteOffset":254000,
			"target":34962
		},
		{
			"buffer":0,
			"byteLength":25536,
			"byteOffset":304800,
			"target":34963
		},
		{
			"buffer":0,
			"byteLength":48896,
			"byteOffset":330336,
			"target":34962
		},
		{
			"buffer":0,
			"byteLength":36672,
			"byteOffset":379232,
			"target":34962
		},
		{
			"buffer":0,
			"byteLength":36672,
			"byteOffset":415904,
			"target":34962
		},
		{
			"buffer":0,
			"byteLength":24448,
			"byteOffset":452576,
			"target":34962
		},
		{
			"buffer":0,
			"byteLength":9168,
			"byteOffset":477024,
			"target":34963
		}
	],
	"samplers":[
		{
			"magFilter":9729,
			"minFilter":9987
		}
	],
	"buffers":[
		{
			"byteLength":486192,
			"uri":"Birch_4.bin"
		}
	]
}
