{
	"asset":{
		"generator":"Khronos glTF Blender I/O v4.0.44",
		"version":"2.0"
	},
	"scene":0,
	"scenes":[
		{
			"name":"Scene",
			"nodes":[
				0
			]
		}
	],
	"nodes":[
		{
			"mesh":0,
			"name":"Birch_5"
		}
	],
	"materials":[
		{
			"doubleSided":true,
			"name":"Bark_Birch",
			"normalTexture":{
				"index":0
			},
			"pbrMetallicRoughness":{
				"baseColorTexture":{
					"index":1
				},
				"metallicFactor":0
			}
		},
		{
			"alphaCutoff":0.20000000298023224,
			"alphaMode":"MASK",
			"doubleSided":true,
			"name":"Leaves_Birch",
			"pbrMetallicRoughness":{
				"baseColorTexture":{
					"index":2
				},
				"metallicFactor":0
			}
		}
	],
	"meshes":[
		{
			"name":"tree.007",
			"primitives":[
				{
					"attributes":{
						"COLOR_0":0,
						"POSITION":1,
						"NORMAL":2,
						"TEXCOORD_0":3
					},
					"indices":4,
					"material":0
				},
				{
					"attributes":{
						"COLOR_0":5,
						"POSITION":6,
						"NORMAL":7,
						"TEXCOORD_0":8
					},
					"indices":9,
					"material":1
				}
			]
		}
	],
	"textures":[
		{
			"sampler":0,
			"source":0
		},
		{
			"sampler":0,
			"source":1
		},
		{
			"sampler":0,
			"source":2
		}
	],
	"images":[
		{
			"mimeType":"image/png",
			"name":"Bark_BirchTree_Normal",
			"uri":"Bark_BirchTree_Normal.png"
		},
		{
			"mimeType":"image/png",
			"name":"Bark_BirchTree",
			"uri":"Bark_BirchTree.png"
		},
		{
			"mimeType":"image/png",
			"name":"Leaves_Birch_C",
			"uri":"Leaves_Birch_C.png"
		}
	],
	"accessors":[
		{
			"bufferView":0,
			"componentType":5126,
			"count":5482,
			"type":"VEC4"
		},
		{
			"bufferView":1,
			"componentType":5126,
			"count":5482,
			"max":[
				3.253328323364258,
				12.484357833862305,
				0.703652560710907
			],
			"min":[
				-2.242967128753662,
				-0.428577721118927,
				-3.905938148498535
			],
			"type":"VEC3"
		},
		{
			"bufferView":2,
			"componentType":5126,
			"count":5482,
			"type":"VEC3"
		},
		{
			"bufferView":3,
			"componentType":5126,
			"count":5482,
			"type":"VEC2"
		},
		{
			"bufferView":4,
			"componentType":5123,
			"count":10710,
			"type":"SCALAR"
		},
		{
			"bufferView":5,
			"componentType":5126,
			"count":3072,
			"type":"VEC4"
		},
		{
			"bufferView":6,
			"componentType":5126,
			"count":3072,
			"max":[
				3.809194803237915,
				13.289700508117676,
				1.2367165088653564
			],
			"min":[
				-2.8990869522094727,
				4.210744857788086,
				-5.081326007843018
			],
			"type":"VEC3"
		},
		{
			"bufferView":7,
			"componentType":5126,
			"count":3072,
			"type":"VEC3"
		},
		{
			"bufferView":8,
			"componentType":5126,
			"count":3072,
			"type":"VEC2"
		},
		{
			"bufferView":9,
			"componentType":5123,
			"count":4608,
			"type":"SCALAR"
		}
	],
	"bufferViews":[
		{
			"buffer":0,
			"byteLength":87712,
			"byteOffset":0,
			"target":34962
		},
		{
			"buffer":0,
			"byteLength":65784,
			"byteOffset":87712,
			"target":34962
		},
		{
			"buffer":0,
			"byteLength":65784,
			"byteOffset":153496,
			"target":34962
		},
		{
			"buffer":0,
			"byteLength":43856,
			"byteOffset":219280,
			"target":34962
		},
		{
			"buffer":0,
			"byteLength":21420,
			"byteOffset":263136,
			"target":34963
		},
		{
			"buffer":0,
			"byteLength":49152,
			"byteOffset":284556,
			"target":34962
		},
		{
			"buffer":0,
			"byteLength":36864,
			"byteOffset":333708,
			"target":34962
		},
		{
			"buffer":0,
			"byteLength":36864,
			"byteOffset":370572,
			"target":34962
		},
		{
			"buffer":0,
			"byteLength":24576,
			"byteOffset":407436,
			"target":34962
		},
		{
			"buffer":0,
			"byteLength":9216,
			"byteOffset":432012,
			"target":34963
		}
	],
	"samplers":[
		{
			"magFilter":9729,
			"minFilter":9987
		}
	],
	"buffers":[
		{
			"byteLength":441228,
			"uri":"Birch_5.bin"
		}
	]
}
