{
	"asset":{
		"generator":"Khronos glTF Blender I/O v4.0.44",
		"version":"2.0"
	},
	"scene":0,
	"scenes":[
		{
			"name":"Scene",
			"nodes":[
				0
			]
		}
	],
	"nodes":[
		{
			"mesh":0,
			"name":"Birch_2"
		}
	],
	"materials":[
		{
			"doubleSided":true,
			"name":"Bark_Birch",
			"normalTexture":{
				"index":0
			},
			"pbrMetallicRoughness":{
				"baseColorTexture":{
					"index":1
				},
				"metallicFactor":0
			}
		},
		{
			"alphaCutoff":0.20000000298023224,
			"alphaMode":"MASK",
			"doubleSided":true,
			"name":"Leaves_Birch",
			"pbrMetallicRoughness":{
				"baseColorTexture":{
					"index":2
				},
				"metallicFactor":0
			}
		}
	],
	"meshes":[
		{
			"name":"tree.004",
			"primitives":[
				{
					"attributes":{
						"COLOR_0":0,
						"POSITION":1,
						"NORMAL":2,
						"TEXCOORD_0":3
					},
					"indices":4,
					"material":0
				},
				{
					"attributes":{
						"COLOR_0":5,
						"POSITION":6,
						"NORMAL":7,
						"TEXCOORD_0":8
					},
					"indices":9,
					"material":1
				}
			]
		}
	],
	"textures":[
		{
			"sampler":0,
			"source":0
		},
		{
			"sampler":0,
			"source":1
		},
		{
			"sampler":0,
			"source":2
		}
	],
	"images":[
		{
			"mimeType":"image/png",
			"name":"Bark_BirchTree_Normal",
			"uri":"Bark_BirchTree_Normal.png"
		},
		{
			"mimeType":"image/png",
			"name":"Bark_BirchTree",
			"uri":"Bark_BirchTree.png"
		},
		{
			"mimeType":"image/png",
			"name":"Leaves_Birch_C",
			"uri":"Leaves_Birch_C.png"
		}
	],
	"accessors":[
		{
			"bufferView":0,
			"componentType":5126,
			"count":6574,
			"type":"VEC4"
		},
		{
			"bufferView":1,
			"componentType":5126,
			"count":6574,
			"max":[
				3.22851300239563,
				12.46019172668457,
				1.1877045631408691
			],
			"min":[
				-2.3360869884490967,
				-0.428577721118927,
				-2.7287137508392334
			],
			"type":"VEC3"
		},
		{
			"bufferView":2,
			"componentType":5126,
			"count":6574,
			"type":"VEC3"
		},
		{
			"bufferView":3,
			"componentType":5126,
			"count":6574,
			"type":"VEC2"
		},
		{
			"bufferView":4,
			"componentType":5123,
			"count":13599,
			"type":"SCALAR"
		},
		{
			"bufferView":5,
			"componentType":5126,
			"count":4224,
			"type":"VEC4"
		},
		{
			"bufferView":6,
			"componentType":5126,
			"count":4224,
			"max":[
				3.7881360054016113,
				13.101866722106934,
				1.8924623727798462
			],
			"min":[
				-2.875913143157959,
				4.623663902282715,
				-3.3586809635162354
			],
			"type":"VEC3"
		},
		{
			"bufferView":7,
			"componentType":5126,
			"count":4224,
			"type":"VEC3"
		},
		{
			"bufferView":8,
			"componentType":5126,
			"count":4224,
			"type":"VEC2"
		},
		{
			"bufferView":9,
			"componentType":5123,
			"count":6336,
			"type":"SCALAR"
		}
	],
	"bufferViews":[
		{
			"buffer":0,
			"byteLength":105184,
			"byteOffset":0,
			"target":34962
		},
		{
			"buffer":0,
			"byteLength":78888,
			"byteOffset":105184,
			"target":34962
		},
		{
			"buffer":0,
			"byteLength":78888,
			"byteOffset":184072,
			"target":34962
		},
		{
			"buffer":0,
			"byteLength":52592,
			"byteOffset":262960,
			"target":34962
		},
		{
			"buffer":0,
			"byteLength":27198,
			"byteOffset":315552,
			"target":34963
		},
		{
			"buffer":0,
			"byteLength":67584,
			"byteOffset":342752,
			"target":34962
		},
		{
			"buffer":0,
			"byteLength":50688,
			"byteOffset":410336,
			"target":34962
		},
		{
			"buffer":0,
			"byteLength":50688,
			"byteOffset":461024,
			"target":34962
		},
		{
			"buffer":0,
			"byteLength":33792,
			"byteOffset":511712,
			"target":34962
		},
		{
			"buffer":0,
			"byteLength":12672,
			"byteOffset":545504,
			"target":34963
		}
	],
	"samplers":[
		{
			"magFilter":9729,
			"minFilter":9987
		}
	],
	"buffers":[
		{
			"byteLength":558176,
			"uri":"Birch_2.bin"
		}
	]
}
