{
	"asset":{
		"generator":"Khronos glTF Blender I/O v4.0.44",
		"version":"2.0"
	},
	"scene":0,
	"scenes":[
		{
			"name":"Scene",
			"nodes":[
				0
			]
		}
	],
	"nodes":[
		{
			"mesh":0,
			"name":"Bush_Large"
		}
	],
	"materials":[
		{
			"alphaCutoff":0.20000000298023224,
			"alphaMode":"MASK",
			"doubleSided":true,
			"name":"Leaves_GiantPine",
			"pbrMetallicRoughness":{
				"baseColorTexture":{
					"index":0
				},
				"metallicFactor":0
			}
		}
	],
	"meshes":[
		{
			"name":"tree.046",
			"primitives":[
				{
					"attributes":{
						"COLOR_0":0,
						"POSITION":1,
						"NORMAL":2,
						"TEXCOORD_0":3
					},
					"indices":4,
					"material":0
				}
			]
		}
	],
	"textures":[
		{
			"sampler":0,
			"source":0
		}
	],
	"images":[
		{
			"mimeType":"image/png",
			"name":"Leaves_GiantPine_C",
			"uri":"Leaves_GiantPine_C.png"
		}
	],
	"accessors":[
		{
			"bufferView":0,
			"componentType":5126,
			"count":1728,
			"type":"VEC4"
		},
		{
			"bufferView":1,
			"componentType":5126,
			"count":1728,
			"max":[
				1.8775538206100464,
				2.833508014678955,
				1.8439654111862183
			],
			"min":[
				-1.7178152799606323,
				-0.41830262541770935,
				-1.8215556144714355
			],
			"type":"VEC3"
		},
		{
			"bufferView":2,
			"componentType":5126,
			"count":1728,
			"type":"VEC3"
		},
		{
			"bufferView":3,
			"componentType":5126,
			"count":1728,
			"type":"VEC2"
		},
		{
			"bufferView":4,
			"componentType":5123,
			"count":2592,
			"type":"SCALAR"
		}
	],
	"bufferViews":[
		{
			"buffer":0,
			"byteLength":27648,
			"byteOffset":0,
			"target":34962
		},
		{
			"buffer":0,
			"byteLength":20736,
			"byteOffset":27648,
			"target":34962
		},
		{
			"buffer":0,
			"byteLength":20736,
			"byteOffset":48384,
			"target":34962
		},
		{
			"buffer":0,
			"byteLength":13824,
			"byteOffset":69120,
			"target":34962
		},
		{
			"buffer":0,
			"byteLength":5184,
			"byteOffset":82944,
			"target":34963
		}
	],
	"samplers":[
		{
			"magFilter":9729,
			"minFilter":9987
		}
	],
	"buffers":[
		{
			"byteLength":88128,
			"uri":"Bush_Large.bin"
		}
	]
}
