{
	"asset":{
		"generator":"Khronos glTF Blender I/O v4.0.44",
		"version":"2.0"
	},
	"scene":0,
	"scenes":[
		{
			"name":"Scene",
			"nodes":[
				0
			]
		}
	],
	"nodes":[
		{
			"mesh":0,
			"name":"Bush_Large_Flowers"
		}
	],
	"materials":[
		{
			"alphaCutoff":0.20000000298023224,
			"alphaMode":"MASK",
			"doubleSided":true,
			"name":"Flowers",
			"pbrMetallicRoughness":{
				"baseColorTexture":{
					"index":0
				},
				"metallicFactor":0
			}
		},
		{
			"alphaCutoff":0.20000000298023224,
			"alphaMode":"MASK",
			"doubleSided":true,
			"name":"Leaves_GiantPine",
			"pbrMetallicRoughness":{
				"baseColorTexture":{
					"index":1
				},
				"metallicFactor":0
			}
		}
	],
	"meshes":[
		{
			"name":"tree.010",
			"primitives":[
				{
					"attributes":{
						"COLOR_0":0,
						"POSITION":1,
						"NORMAL":2,
						"TEXCOORD_0":3
					},
					"indices":4,
					"material":0
				},
				{
					"attributes":{
						"COLOR_0":5,
						"POSITION":6,
						"NORMAL":7,
						"TEXCOORD_0":8
					},
					"indices":9,
					"material":1
				}
			]
		}
	],
	"textures":[
		{
			"sampler":0,
			"source":0
		},
		{
			"sampler":0,
			"source":1
		}
	],
	"images":[
		{
			"mimeType":"image/png",
			"name":"Flowers",
			"uri":"Flowers.png"
		},
		{
			"mimeType":"image/png",
			"name":"Leaves_GiantPine_C",
			"uri":"Leaves_GiantPine_C.png"
		}
	],
	"accessors":[
		{
			"bufferView":0,
			"componentType":5126,
			"count":549,
			"type":"VEC4"
		},
		{
			"bufferView":1,
			"componentType":5126,
			"count":549,
			"max":[
				2.002925395965576,
				2.83725643157959,
				1.763440728187561
			],
			"min":[
				-1.7995274066925049,
				0.1615467667579651,
				-1.404332160949707
			],
			"type":"VEC3"
		},
		{
			"bufferView":2,
			"componentType":5126,
			"count":549,
			"type":"VEC3"
		},
		{
			"bufferView":3,
			"componentType":5126,
			"count":549,
			"type":"VEC2"
		},
		{
			"bufferView":4,
			"componentType":5123,
			"count":1035,
			"type":"SCALAR"
		},
		{
			"bufferView":5,
			"componentType":5126,
			"count":1728,
			"type":"VEC4"
		},
		{
			"bufferView":6,
			"componentType":5126,
			"count":1728,
			"max":[
				1.8775538206100464,
				2.833508014678955,
				1.8439654111862183
			],
			"min":[
				-1.7178152799606323,
				-0.41830262541770935,
				-1.8215556144714355
			],
			"type":"VEC3"
		},
		{
			"bufferView":7,
			"componentType":5126,
			"count":1728,
			"type":"VEC3"
		},
		{
			"bufferView":8,
			"componentType":5126,
			"count":1728,
			"type":"VEC2"
		},
		{
			"bufferView":9,
			"componentType":5123,
			"count":2592,
			"type":"SCALAR"
		}
	],
	"bufferViews":[
		{
			"buffer":0,
			"byteLength":8784,
			"byteOffset":0,
			"target":34962
		},
		{
			"buffer":0,
			"byteLength":6588,
			"byteOffset":8784,
			"target":34962
		},
		{
			"buffer":0,
			"byteLength":6588,
			"byteOffset":15372,
			"target":34962
		},
		{
			"buffer":0,
			"byteLength":4392,
			"byteOffset":21960,
			"target":34962
		},
		{
			"buffer":0,
			"byteLength":2070,
			"byteOffset":26352,
			"target":34963
		},
		{
			"buffer":0,
			"byteLength":27648,
			"byteOffset":28424,
			"target":34962
		},
		{
			"buffer":0,
			"byteLength":20736,
			"byteOffset":56072,
			"target":34962
		},
		{
			"buffer":0,
			"byteLength":20736,
			"byteOffset":76808,
			"target":34962
		},
		{
			"buffer":0,
			"byteLength":13824,
			"byteOffset":97544,
			"target":34962
		},
		{
			"buffer":0,
			"byteLength":5184,
			"byteOffset":111368,
			"target":34963
		}
	],
	"samplers":[
		{
			"magFilter":9729,
			"minFilter":9987
		}
	],
	"buffers":[
		{
			"byteLength":116552,
			"uri":"Bush_Large_Flowers.bin"
		}
	]
}
