{
	"asset":{
		"generator":"Khronos glTF Blender I/O v4.0.44",
		"version":"2.0"
	},
	"scene":0,
	"scenes":[
		{
			"name":"Scene",
			"nodes":[
				0
			]
		}
	],
	"nodes":[
		{
			"mesh":0,
			"name":"Bush_Long_1"
		}
	],
	"materials":[
		{
			"alphaCutoff":0.20000000298023224,
			"alphaMode":"MASK",
			"doubleSided":true,
			"name":"Leaves_NormalTree",
			"pbrMetallicRoughness":{
				"baseColorTexture":{
					"index":0
				},
				"metallicFactor":0
			}
		}
	],
	"meshes":[
		{
			"name":"tree.011",
			"primitives":[
				{
					"attributes":{
						"COLOR_0":0,
						"POSITION":1,
						"NORMAL":2,
						"TEXCOORD_0":3
					},
					"indices":4,
					"material":0
				}
			]
		}
	],
	"textures":[
		{
			"sampler":0,
			"source":0
		}
	],
	"images":[
		{
			"mimeType":"image/png",
			"name":"Leaves_NormalTree_C",
			"uri":"Leaves_NormalTree_C.png"
		}
	],
	"accessors":[
		{
			"bufferView":0,
			"componentType":5126,
			"count":1044,
			"type":"VEC4"
		},
		{
			"bufferView":1,
			"componentType":5126,
			"count":1044,
			"max":[
				0.8625106811523438,
				1.9658807516098022,
				0.7979487180709839
			],
			"min":[
				-0.814096987247467,
				-0.402360737323761,
				-0.8449163436889648
			],
			"type":"VEC3"
		},
		{
			"bufferView":2,
			"componentType":5126,
			"count":1044,
			"type":"VEC3"
		},
		{
			"bufferView":3,
			"componentType":5126,
			"count":1044,
			"type":"VEC2"
		},
		{
			"bufferView":4,
			"componentType":5123,
			"count":1566,
			"type":"SCALAR"
		}
	],
	"bufferViews":[
		{
			"buffer":0,
			"byteLength":16704,
			"byteOffset":0,
			"target":34962
		},
		{
			"buffer":0,
			"byteLength":12528,
			"byteOffset":16704,
			"target":34962
		},
		{
			"buffer":0,
			"byteLength":12528,
			"byteOffset":29232,
			"target":34962
		},
		{
			"buffer":0,
			"byteLength":8352,
			"byteOffset":41760,
			"target":34962
		},
		{
			"buffer":0,
			"byteLength":3132,
			"byteOffset":50112,
			"target":34963
		}
	],
	"samplers":[
		{
			"magFilter":9729,
			"minFilter":9987
		}
	],
	"buffers":[
		{
			"byteLength":53244,
			"uri":"Bush_Long_1.bin"
		}
	]
}
