{
	"asset":{
		"generator":"Khronos glTF Blender I/O v4.0.44",
		"version":"2.0"
	},
	"scene":0,
	"scenes":[
		{
			"name":"Scene",
			"nodes":[
				0
			]
		}
	],
	"nodes":[
		{
			"mesh":0,
			"name":"Bush_Long_2"
		}
	],
	"materials":[
		{
			"alphaCutoff":0.20000000298023224,
			"alphaMode":"MASK",
			"doubleSided":true,
			"name":"Leaves_NormalTree",
			"pbrMetallicRoughness":{
				"baseColorTexture":{
					"index":0
				},
				"metallicFactor":0
			}
		}
	],
	"meshes":[
		{
			"name":"tree.012",
			"primitives":[
				{
					"attributes":{
						"COLOR_0":0,
						"POSITION":1,
						"NORMAL":2,
						"TEXCOORD_0":3
					},
					"indices":4,
					"material":0
				}
			]
		}
	],
	"textures":[
		{
			"sampler":0,
			"source":0
		}
	],
	"images":[
		{
			"mimeType":"image/png",
			"name":"Leaves_NormalTree_C",
			"uri":"Leaves_NormalTree_C.png"
		}
	],
	"accessors":[
		{
			"bufferView":0,
			"componentType":5126,
			"count":7508,
			"type":"VEC4"
		},
		{
			"bufferView":1,
			"componentType":5126,
			"count":7508,
			"max":[
				0.8436034321784973,
				2.362247943878174,
				0.760888397693634
			],
			"min":[
				-0.76265949010849,
				-0.40063750743865967,
				-0.8000847697257996
			],
			"type":"VEC3"
		},
		{
			"bufferView":2,
			"componentType":5126,
			"count":7508,
			"type":"VEC3"
		},
		{
			"bufferView":3,
			"componentType":5126,
			"count":7508,
			"type":"VEC2"
		},
		{
			"bufferView":4,
			"componentType":5123,
			"count":16179,
			"type":"SCALAR"
		}
	],
	"bufferViews":[
		{
			"buffer":0,
			"byteLength":120128,
			"byteOffset":0,
			"target":34962
		},
		{
			"buffer":0,
			"byteLength":90096,
			"byteOffset":120128,
			"target":34962
		},
		{
			"buffer":0,
			"byteLength":90096,
			"byteOffset":210224,
			"target":34962
		},
		{
			"buffer":0,
			"byteLength":60064,
			"byteOffset":300320,
			"target":34962
		},
		{
			"buffer":0,
			"byteLength":32358,
			"byteOffset":360384,
			"target":34963
		}
	],
	"samplers":[
		{
			"magFilter":9729,
			"minFilter":9987
		}
	],
	"buffers":[
		{
			"byteLength":392744,
			"uri":"Bush_Long_2.bin"
		}
	]
}
