{
	"asset":{
		"generator":"Khronos glTF Blender I/O v4.0.44",
		"version":"2.0"
	},
	"scene":0,
	"scenes":[
		{
			"name":"Scene",
			"nodes":[
				0
			]
		}
	],
	"nodes":[
		{
			"mesh":0,
			"name":"CherryBlossom_5"
		}
	],
	"materials":[
		{
			"alphaCutoff":0.20000000298023224,
			"alphaMode":"MASK",
			"doubleSided":true,
			"name":"Bark_NormalTree",
			"normalTexture":{
				"index":0
			},
			"pbrMetallicRoughness":{
				"baseColorTexture":{
					"index":1
				},
				"metallicFactor":0
			}
		},
		{
			"alphaMode":"BLEND",
			"doubleSided":true,
			"name":"Leaves_CherryBlossom",
			"pbrMetallicRoughness":{
				"baseColorTexture":{
					"index":2
				},
				"metallicFactor":0
			}
		}
	],
	"meshes":[
		{
			"name":"tree.017",
			"primitives":[
				{
					"attributes":{
						"COLOR_0":0,
						"POSITION":1,
						"NORMAL":2,
						"TEXCOORD_0":3
					},
					"indices":4,
					"material":0
				},
				{
					"attributes":{
						"COLOR_0":5,
						"POSITION":6,
						"NORMAL":7,
						"TEXCOORD_0":8
					},
					"indices":9,
					"material":1
				}
			]
		}
	],
	"textures":[
		{
			"sampler":0,
			"source":0
		},
		{
			"sampler":0,
			"source":1
		},
		{
			"sampler":0,
			"source":2
		}
	],
	"images":[
		{
			"mimeType":"image/png",
			"name":"Bark_NormalTree_Normal",
			"uri":"Bark_NormalTree_Normal.png"
		},
		{
			"mimeType":"image/png",
			"name":"Bark_NormalTree",
			"uri":"Bark_NormalTree.png"
		},
		{
			"mimeType":"image/png",
			"name":"Leaves_CherryBlossom_C",
			"uri":"Leaves_CherryBlossom_C.png"
		}
	],
	"accessors":[
		{
			"bufferView":0,
			"componentType":5126,
			"count":11697,
			"type":"VEC4"
		},
		{
			"bufferView":1,
			"componentType":5126,
			"count":11697,
			"max":[
				4.682197093963623,
				12.478440284729004,
				3.106804132461548
			],
			"min":[
				-4.452157020568848,
				-0.210661843419075,
				-5.747885704040527
			],
			"type":"VEC3"
		},
		{
			"bufferView":2,
			"componentType":5126,
			"count":11697,
			"type":"VEC3"
		},
		{
			"bufferView":3,
			"componentType":5126,
			"count":11697,
			"type":"VEC2"
		},
		{
			"bufferView":4,
			"componentType":5123,
			"count":28014,
			"type":"SCALAR"
		},
		{
			"bufferView":5,
			"componentType":5126,
			"count":6504,
			"type":"VEC4"
		},
		{
			"bufferView":6,
			"componentType":5126,
			"count":6504,
			"max":[
				6.370116233825684,
				13.169610023498535,
				4.772704124450684
			],
			"min":[
				-6.116915702819824,
				0.4446876347064972,
				-8.240160942077637
			],
			"type":"VEC3"
		},
		{
			"bufferView":7,
			"componentType":5126,
			"count":6504,
			"type":"VEC3"
		},
		{
			"bufferView":8,
			"componentType":5126,
			"count":6504,
			"type":"VEC2"
		},
		{
			"bufferView":9,
			"componentType":5123,
			"count":9756,
			"type":"SCALAR"
		}
	],
	"bufferViews":[
		{
			"buffer":0,
			"byteLength":187152,
			"byteOffset":0,
			"target":34962
		},
		{
			"buffer":0,
			"byteLength":140364,
			"byteOffset":187152,
			"target":34962
		},
		{
			"buffer":0,
			"byteLength":140364,
			"byteOffset":327516,
			"target":34962
		},
		{
			"buffer":0,
			"byteLength":93576,
			"byteOffset":467880,
			"target":34962
		},
		{
			"buffer":0,
			"byteLength":56028,
			"byteOffset":561456,
			"target":34963
		},
		{
			"buffer":0,
			"byteLength":104064,
			"byteOffset":617484,
			"target":34962
		},
		{
			"buffer":0,
			"byteLength":78048,
			"byteOffset":721548,
			"target":34962
		},
		{
			"buffer":0,
			"byteLength":78048,
			"byteOffset":799596,
			"target":34962
		},
		{
			"buffer":0,
			"byteLength":52032,
			"byteOffset":877644,
			"target":34962
		},
		{
			"buffer":0,
			"byteLength":19512,
			"byteOffset":929676,
			"target":34963
		}
	],
	"samplers":[
		{
			"magFilter":9729,
			"minFilter":9987
		}
	],
	"buffers":[
		{
			"byteLength":949188,
			"uri":"CherryBlossom_5.bin"
		}
	]
}
