{
	"asset":{
		"generator":"Khronos glTF Blender I/O v4.0.44",
		"version":"2.0"
	},
	"scene":0,
	"scenes":[
		{
			"name":"Scene",
			"nodes":[
				0
			]
		}
	],
	"nodes":[
		{
			"mesh":0,
			"name":"CherryBlossom_2"
		}
	],
	"materials":[
		{
			"alphaCutoff":0.20000000298023224,
			"alphaMode":"MASK",
			"doubleSided":true,
			"name":"Bark_NormalTree",
			"normalTexture":{
				"index":0
			},
			"pbrMetallicRoughness":{
				"baseColorTexture":{
					"index":1
				},
				"metallicFactor":0
			}
		},
		{
			"alphaMode":"BLEND",
			"doubleSided":true,
			"name":"Leaves_CherryBlossom",
			"pbrMetallicRoughness":{
				"baseColorTexture":{
					"index":2
				},
				"metallicFactor":0
			}
		}
	],
	"meshes":[
		{
			"name":"tree.014",
			"primitives":[
				{
					"attributes":{
						"COLOR_0":0,
						"POSITION":1,
						"NORMAL":2,
						"TEXCOORD_0":3
					},
					"indices":4,
					"material":0
				},
				{
					"attributes":{
						"COLOR_0":5,
						"POSITION":6,
						"NORMAL":7,
						"TEXCOORD_0":8
					},
					"indices":9,
					"material":1
				}
			]
		}
	],
	"textures":[
		{
			"sampler":0,
			"source":0
		},
		{
			"sampler":0,
			"source":1
		},
		{
			"sampler":0,
			"source":2
		}
	],
	"images":[
		{
			"mimeType":"image/png",
			"name":"Bark_NormalTree_Normal",
			"uri":"Bark_NormalTree_Normal.png"
		},
		{
			"mimeType":"image/png",
			"name":"Bark_NormalTree",
			"uri":"Bark_NormalTree.png"
		},
		{
			"mimeType":"image/png",
			"name":"Leaves_CherryBlossom_C",
			"uri":"Leaves_CherryBlossom_C.png"
		}
	],
	"accessors":[
		{
			"bufferView":0,
			"componentType":5126,
			"count":12523,
			"type":"VEC4"
		},
		{
			"bufferView":1,
			"componentType":5126,
			"count":12523,
			"max":[
				9.119078636169434,
				10.751580238342285,
				1.4064016342163086
			],
			"min":[
				-1.2529408931732178,
				-0.210661843419075,
				-8.434141159057617
			],
			"type":"VEC3"
		},
		{
			"bufferView":2,
			"componentType":5126,
			"count":12523,
			"type":"VEC3"
		},
		{
			"bufferView":3,
			"componentType":5126,
			"count":12523,
			"type":"VEC2"
		},
		{
			"bufferView":4,
			"componentType":5123,
			"count":29184,
			"type":"SCALAR"
		},
		{
			"bufferView":5,
			"componentType":5126,
			"count":6889,
			"type":"VEC4"
		},
		{
			"bufferView":6,
			"componentType":5126,
			"count":6889,
			"max":[
				9.828458786010742,
				11.349228858947754,
				2.3914573192596436
			],
			"min":[
				-2.5993385314941406,
				0.9124367237091064,
				-9.838790893554688
			],
			"type":"VEC3"
		},
		{
			"bufferView":7,
			"componentType":5126,
			"count":6889,
			"type":"VEC3"
		},
		{
			"bufferView":8,
			"componentType":5126,
			"count":6889,
			"type":"VEC2"
		},
		{
			"bufferView":9,
			"componentType":5123,
			"count":10332,
			"type":"SCALAR"
		}
	],
	"bufferViews":[
		{
			"buffer":0,
			"byteLength":200368,
			"byteOffset":0,
			"target":34962
		},
		{
			"buffer":0,
			"byteLength":150276,
			"byteOffset":200368,
			"target":34962
		},
		{
			"buffer":0,
			"byteLength":150276,
			"byteOffset":350644,
			"target":34962
		},
		{
			"buffer":0,
			"byteLength":100184,
			"byteOffset":500920,
			"target":34962
		},
		{
			"buffer":0,
			"byteLength":58368,
			"byteOffset":601104,
			"target":34963
		},
		{
			"buffer":0,
			"byteLength":110224,
			"byteOffset":659472,
			"target":34962
		},
		{
			"buffer":0,
			"byteLength":82668,
			"byteOffset":769696,
			"target":34962
		},
		{
			"buffer":0,
			"byteLength":82668,
			"byteOffset":852364,
			"target":34962
		},
		{
			"buffer":0,
			"byteLength":55112,
			"byteOffset":935032,
			"target":34962
		},
		{
			"buffer":0,
			"byteLength":20664,
			"byteOffset":990144,
			"target":34963
		}
	],
	"samplers":[
		{
			"magFilter":9729,
			"minFilter":9987
		}
	],
	"buffers":[
		{
			"byteLength":1010808,
			"uri":"CherryBlossom_2.bin"
		}
	]
}
