{
	"asset":{
		"generator":"Khronos glTF Blender I/O v4.0.44",
		"version":"2.0"
	},
	"scene":0,
	"scenes":[
		{
			"name":"Scene",
			"nodes":[
				0
			]
		}
	],
	"nodes":[
		{
			"mesh":0,
			"name":"CherryBlossom_4"
		}
	],
	"materials":[
		{
			"alphaCutoff":0.20000000298023224,
			"alphaMode":"MASK",
			"doubleSided":true,
			"name":"Bark_NormalTree",
			"normalTexture":{
				"index":0
			},
			"pbrMetallicRoughness":{
				"baseColorTexture":{
					"index":1
				},
				"metallicFactor":0
			}
		},
		{
			"alphaMode":"BLEND",
			"doubleSided":true,
			"name":"Leaves_CherryBlossom",
			"pbrMetallicRoughness":{
				"baseColorTexture":{
					"index":2
				},
				"metallicFactor":0
			}
		}
	],
	"meshes":[
		{
			"name":"tree.016",
			"primitives":[
				{
					"attributes":{
						"COLOR_0":0,
						"POSITION":1,
						"NORMAL":2,
						"TEXCOORD_0":3
					},
					"indices":4,
					"material":0
				},
				{
					"attributes":{
						"COLOR_0":5,
						"POSITION":6,
						"NORMAL":7,
						"TEXCOORD_0":8
					},
					"indices":9,
					"material":1
				}
			]
		}
	],
	"textures":[
		{
			"sampler":0,
			"source":0
		},
		{
			"sampler":0,
			"source":1
		},
		{
			"sampler":0,
			"source":2
		}
	],
	"images":[
		{
			"mimeType":"image/png",
			"name":"Bark_NormalTree_Normal",
			"uri":"Bark_NormalTree_Normal.png"
		},
		{
			"mimeType":"image/png",
			"name":"Bark_NormalTree",
			"uri":"Bark_NormalTree.png"
		},
		{
			"mimeType":"image/png",
			"name":"Leaves_CherryBlossom_C",
			"uri":"Leaves_CherryBlossom_C.png"
		}
	],
	"accessors":[
		{
			"bufferView":0,
			"componentType":5126,
			"count":11564,
			"type":"VEC4"
		},
		{
			"bufferView":1,
			"componentType":5126,
			"count":11564,
			"max":[
				5.290931701660156,
				12.393915176391602,
				1.3411273956298828
			],
			"min":[
				-3.5921823978424072,
				-0.210661843419075,
				-7.434797286987305
			],
			"type":"VEC3"
		},
		{
			"bufferView":2,
			"componentType":5126,
			"count":11564,
			"type":"VEC3"
		},
		{
			"bufferView":3,
			"componentType":5126,
			"count":11564,
			"type":"VEC2"
		},
		{
			"bufferView":4,
			"componentType":5123,
			"count":27735,
			"type":"SCALAR"
		},
		{
			"bufferView":5,
			"componentType":5126,
			"count":6295,
			"type":"VEC4"
		},
		{
			"bufferView":6,
			"componentType":5126,
			"count":6295,
			"max":[
				7.660218238830566,
				12.877479553222656,
				3.1258859634399414
			],
			"min":[
				-5.68044376373291,
				-0.49091777205467224,
				-9.417553901672363
			],
			"type":"VEC3"
		},
		{
			"bufferView":7,
			"componentType":5126,
			"count":6295,
			"type":"VEC3"
		},
		{
			"bufferView":8,
			"componentType":5126,
			"count":6295,
			"type":"VEC2"
		},
		{
			"bufferView":9,
			"componentType":5123,
			"count":9438,
			"type":"SCALAR"
		}
	],
	"bufferViews":[
		{
			"buffer":0,
			"byteLength":185024,
			"byteOffset":0,
			"target":34962
		},
		{
			"buffer":0,
			"byteLength":138768,
			"byteOffset":185024,
			"target":34962
		},
		{
			"buffer":0,
			"byteLength":138768,
			"byteOffset":323792,
			"target":34962
		},
		{
			"buffer":0,
			"byteLength":92512,
			"byteOffset":462560,
			"target":34962
		},
		{
			"buffer":0,
			"byteLength":55470,
			"byteOffset":555072,
			"target":34963
		},
		{
			"buffer":0,
			"byteLength":100720,
			"byteOffset":610544,
			"target":34962
		},
		{
			"buffer":0,
			"byteLength":75540,
			"byteOffset":711264,
			"target":34962
		},
		{
			"buffer":0,
			"byteLength":75540,
			"byteOffset":786804,
			"target":34962
		},
		{
			"buffer":0,
			"byteLength":50360,
			"byteOffset":862344,
			"target":34962
		},
		{
			"buffer":0,
			"byteLength":18876,
			"byteOffset":912704,
			"target":34963
		}
	],
	"samplers":[
		{
			"magFilter":9729,
			"minFilter":9987
		}
	],
	"buffers":[
		{
			"byteLength":931580,
			"uri":"CherryBlossom_4.bin"
		}
	]
}
