{
	"asset":{
		"generator":"Khronos glTF Blender I/O v4.0.44",
		"version":"2.0"
	},
	"scene":0,
	"scenes":[
		{
			"name":"Scene",
			"nodes":[
				0
			]
		}
	],
	"nodes":[
		{
			"mesh":0,
			"name":"CherryBlossom_3"
		}
	],
	"materials":[
		{
			"alphaCutoff":0.20000000298023224,
			"alphaMode":"MASK",
			"doubleSided":true,
			"name":"Bark_NormalTree",
			"normalTexture":{
				"index":0
			},
			"pbrMetallicRoughness":{
				"baseColorTexture":{
					"index":1
				},
				"metallicFactor":0
			}
		},
		{
			"alphaMode":"BLEND",
			"doubleSided":true,
			"name":"Leaves_CherryBlossom",
			"pbrMetallicRoughness":{
				"baseColorTexture":{
					"index":2
				},
				"metallicFactor":0
			}
		}
	],
	"meshes":[
		{
			"name":"tree.015",
			"primitives":[
				{
					"attributes":{
						"COLOR_0":0,
						"POSITION":1,
						"NORMAL":2,
						"TEXCOORD_0":3
					},
					"indices":4,
					"material":0
				},
				{
					"attributes":{
						"COLOR_0":5,
						"POSITION":6,
						"NORMAL":7,
						"TEXCOORD_0":8
					},
					"indices":9,
					"material":1
				}
			]
		}
	],
	"textures":[
		{
			"sampler":0,
			"source":0
		},
		{
			"sampler":0,
			"source":1
		},
		{
			"sampler":0,
			"source":2
		}
	],
	"images":[
		{
			"mimeType":"image/png",
			"name":"Bark_NormalTree_Normal",
			"uri":"Bark_NormalTree_Normal.png"
		},
		{
			"mimeType":"image/png",
			"name":"Bark_NormalTree",
			"uri":"Bark_NormalTree.png"
		},
		{
			"mimeType":"image/png",
			"name":"Leaves_CherryBlossom_C",
			"uri":"Leaves_CherryBlossom_C.png"
		}
	],
	"accessors":[
		{
			"bufferView":0,
			"componentType":5126,
			"count":12431,
			"type":"VEC4"
		},
		{
			"bufferView":1,
			"componentType":5126,
			"count":12431,
			"max":[
				9.674745559692383,
				13.300257682800293,
				3.6033935546875
			],
			"min":[
				-3.3593084812164307,
				-0.210661843419075,
				-5.675198554992676
			],
			"type":"VEC3"
		},
		{
			"bufferView":2,
			"componentType":5126,
			"count":12431,
			"type":"VEC3"
		},
		{
			"bufferView":3,
			"componentType":5126,
			"count":12431,
			"type":"VEC2"
		},
		{
			"bufferView":4,
			"componentType":5123,
			"count":28983,
			"type":"SCALAR"
		},
		{
			"bufferView":5,
			"componentType":5126,
			"count":10159,
			"type":"VEC4"
		},
		{
			"bufferView":6,
			"componentType":5126,
			"count":10159,
			"max":[
				11.798202514648438,
				14.277937889099121,
				4.928161144256592
			],
			"min":[
				-4.789698600769043,
				2.868657350540161,
				-8.101432800292969
			],
			"type":"VEC3"
		},
		{
			"bufferView":7,
			"componentType":5126,
			"count":10159,
			"type":"VEC3"
		},
		{
			"bufferView":8,
			"componentType":5126,
			"count":10159,
			"type":"VEC2"
		},
		{
			"bufferView":9,
			"componentType":5123,
			"count":15234,
			"type":"SCALAR"
		}
	],
	"bufferViews":[
		{
			"buffer":0,
			"byteLength":198896,
			"byteOffset":0,
			"target":34962
		},
		{
			"buffer":0,
			"byteLength":149172,
			"byteOffset":198896,
			"target":34962
		},
		{
			"buffer":0,
			"byteLength":149172,
			"byteOffset":348068,
			"target":34962
		},
		{
			"buffer":0,
			"byteLength":99448,
			"byteOffset":497240,
			"target":34962
		},
		{
			"buffer":0,
			"byteLength":57966,
			"byteOffset":596688,
			"target":34963
		},
		{
			"buffer":0,
			"byteLength":162544,
			"byteOffset":654656,
			"target":34962
		},
		{
			"buffer":0,
			"byteLength":121908,
			"byteOffset":817200,
			"target":34962
		},
		{
			"buffer":0,
			"byteLength":121908,
			"byteOffset":939108,
			"target":34962
		},
		{
			"buffer":0,
			"byteLength":81272,
			"byteOffset":1061016,
			"target":34962
		},
		{
			"buffer":0,
			"byteLength":30468,
			"byteOffset":1142288,
			"target":34963
		}
	],
	"samplers":[
		{
			"magFilter":9729,
			"minFilter":9987
		}
	],
	"buffers":[
		{
			"byteLength":1172756,
			"uri":"CherryBlossom_3.bin"
		}
	]
}
