{
	"asset":{
		"generator":"Khronos glTF Blender I/O v4.0.44",
		"version":"2.0"
	},
	"scene":0,
	"scenes":[
		{
			"name":"Scene",
			"nodes":[
				0
			]
		}
	],
	"nodes":[
		{
			"mesh":0,
			"name":"Flower_7_Single"
		}
	],
	"materials":[
		{
			"alphaCutoff":0.20000000298023224,
			"alphaMode":"MASK",
			"doubleSided":true,
			"name":"Leaves",
			"pbrMetallicRoughness":{
				"baseColorTexture":{
					"index":0
				},
				"metallicFactor":0
			}
		},
		{
			"alphaCutoff":0.20000000298023224,
			"alphaMode":"MASK",
			"doubleSided":true,
			"name":"Flowers",
			"pbrMetallicRoughness":{
				"baseColorTexture":{
					"index":1
				},
				"metallicFactor":0
			}
		}
	],
	"meshes":[
		{
			"name":"Cylinder.012",
			"primitives":[
				{
					"attributes":{
						"COLOR_0":0,
						"POSITION":1,
						"NORMAL":2,
						"TEXCOORD_0":3
					},
					"indices":4,
					"material":0
				},
				{
					"attributes":{
						"COLOR_0":5,
						"POSITION":6,
						"NORMAL":7,
						"TEXCOORD_0":8
					},
					"indices":9,
					"material":1
				}
			]
		}
	],
	"textures":[
		{
			"sampler":0,
			"source":0
		},
		{
			"sampler":0,
			"source":1
		}
	],
	"images":[
		{
			"mimeType":"image/png",
			"name":"Leaves",
			"uri":"Leaves.png"
		},
		{
			"mimeType":"image/png",
			"name":"Flowers",
			"uri":"Flowers.png"
		}
	],
	"accessors":[
		{
			"bufferView":0,
			"componentType":5123,
			"count":165,
			"normalized":true,
			"type":"VEC4"
		},
		{
			"bufferView":1,
			"componentType":5126,
			"count":165,
			"max":[
				0.3801451325416565,
				1.2948869466781616,
				0.36934489011764526
			],
			"min":[
				-0.6583636999130249,
				-0.017236197367310524,
				-0.5442845225334167
			],
			"type":"VEC3"
		},
		{
			"bufferView":2,
			"componentType":5126,
			"count":165,
			"type":"VEC3"
		},
		{
			"bufferView":3,
			"componentType":5126,
			"count":165,
			"type":"VEC2"
		},
		{
			"bufferView":4,
			"componentType":5123,
			"count":645,
			"type":"SCALAR"
		},
		{
			"bufferView":5,
			"componentType":5123,
			"count":69,
			"normalized":true,
			"type":"VEC4"
		},
		{
			"bufferView":6,
			"componentType":5126,
			"count":69,
			"max":[
				-0.011783897876739502,
				1.55990731716156,
				0.14767183363437653
			],
			"min":[
				-0.5990898609161377,
				1.0817126035690308,
				-0.4702518582344055
			],
			"type":"VEC3"
		},
		{
			"bufferView":7,
			"componentType":5126,
			"count":69,
			"type":"VEC3"
		},
		{
			"bufferView":8,
			"componentType":5126,
			"count":69,
			"type":"VEC2"
		},
		{
			"bufferView":9,
			"componentType":5123,
			"count":213,
			"type":"SCALAR"
		}
	],
	"bufferViews":[
		{
			"buffer":0,
			"byteLength":1320,
			"byteOffset":0,
			"target":34962
		},
		{
			"buffer":0,
			"byteLength":1980,
			"byteOffset":1320,
			"target":34962
		},
		{
			"buffer":0,
			"byteLength":1980,
			"byteOffset":3300,
			"target":34962
		},
		{
			"buffer":0,
			"byteLength":1320,
			"byteOffset":5280,
			"target":34962
		},
		{
			"buffer":0,
			"byteLength":1290,
			"byteOffset":6600,
			"target":34963
		},
		{
			"buffer":0,
			"byteLength":552,
			"byteOffset":7892,
			"target":34962
		},
		{
			"buffer":0,
			"byteLength":828,
			"byteOffset":8444,
			"target":34962
		},
		{
			"buffer":0,
			"byteLength":828,
			"byteOffset":9272,
			"target":34962
		},
		{
			"buffer":0,
			"byteLength":552,
			"byteOffset":10100,
			"target":34962
		},
		{
			"buffer":0,
			"byteLength":426,
			"byteOffset":10652,
			"target":34963
		}
	],
	"samplers":[
		{
			"magFilter":9729,
			"minFilter":9987
		}
	],
	"buffers":[
		{
			"byteLength":11080,
			"uri":"Flower_7_Single.bin"
		}
	]
}
