{
	"asset":{
		"generator":"Khronos glTF Blender I/O v4.0.44",
		"version":"2.0"
	},
	"scene":0,
	"scenes":[
		{
			"name":"Scene",
			"nodes":[
				0
			]
		}
	],
	"nodes":[
		{
			"mesh":0,
			"name":"Flower_1_Group"
		}
	],
	"materials":[
		{
			"alphaCutoff":0.20000000298023224,
			"alphaMode":"MASK",
			"doubleSided":true,
			"name":"Leaves",
			"pbrMetallicRoughness":{
				"baseColorTexture":{
					"index":0
				},
				"metallicFactor":0
			}
		},
		{
			"alphaCutoff":0.20000000298023224,
			"alphaMode":"MASK",
			"doubleSided":true,
			"name":"Flowers",
			"pbrMetallicRoughness":{
				"baseColorTexture":{
					"index":1
				},
				"metallicFactor":0
			}
		}
	],
	"meshes":[
		{
			"name":"Plane.015",
			"primitives":[
				{
					"attributes":{
						"POSITION":0,
						"NORMAL":1,
						"TEXCOORD_0":2
					},
					"indices":3,
					"material":0
				},
				{
					"attributes":{
						"POSITION":4,
						"NORMAL":5,
						"TEXCOORD_0":6
					},
					"indices":7,
					"material":1
				}
			]
		}
	],
	"textures":[
		{
			"sampler":0,
			"source":0
		},
		{
			"sampler":0,
			"source":1
		}
	],
	"images":[
		{
			"mimeType":"image/png",
			"name":"Leaves",
			"uri":"Leaves.png"
		},
		{
			"mimeType":"image/png",
			"name":"Flowers",
			"uri":"Flowers.png"
		}
	],
	"accessors":[
		{
			"bufferView":0,
			"componentType":5126,
			"count":867,
			"max":[
				0.7367457747459412,
				1.2086310386657715,
				0.864399254322052
			],
			"min":[
				-0.7192403078079224,
				-0.020730430260300636,
				-0.7848237752914429
			],
			"type":"VEC3"
		},
		{
			"bufferView":1,
			"componentType":5126,
			"count":867,
			"type":"VEC3"
		},
		{
			"bufferView":2,
			"componentType":5126,
			"count":867,
			"type":"VEC2"
		},
		{
			"bufferView":3,
			"componentType":5123,
			"count":4218,
			"type":"SCALAR"
		},
		{
			"bufferView":4,
			"componentType":5126,
			"count":176,
			"max":[
				0.9005059003829956,
				1.477538824081421,
				0.8902068138122559
			],
			"min":[
				-0.9279250502586365,
				0.9298235774040222,
				-0.8340933322906494
			],
			"type":"VEC3"
		},
		{
			"bufferView":5,
			"componentType":5126,
			"count":176,
			"type":"VEC3"
		},
		{
			"bufferView":6,
			"componentType":5126,
			"count":176,
			"type":"VEC2"
		},
		{
			"bufferView":7,
			"componentType":5123,
			"count":495,
			"type":"SCALAR"
		}
	],
	"bufferViews":[
		{
			"buffer":0,
			"byteLength":10404,
			"byteOffset":0,
			"target":34962
		},
		{
			"buffer":0,
			"byteLength":10404,
			"byteOffset":10404,
			"target":34962
		},
		{
			"buffer":0,
			"byteLength":6936,
			"byteOffset":20808,
			"target":34962
		},
		{
			"buffer":0,
			"byteLength":8436,
			"byteOffset":27744,
			"target":34963
		},
		{
			"buffer":0,
			"byteLength":2112,
			"byteOffset":36180,
			"target":34962
		},
		{
			"buffer":0,
			"byteLength":2112,
			"byteOffset":38292,
			"target":34962
		},
		{
			"buffer":0,
			"byteLength":1408,
			"byteOffset":40404,
			"target":34962
		},
		{
			"buffer":0,
			"byteLength":990,
			"byteOffset":41812,
			"target":34963
		}
	],
	"samplers":[
		{
			"magFilter":9729,
			"minFilter":9987
		}
	],
	"buffers":[
		{
			"byteLength":42804,
			"uri":"Flower_1_Group.bin"
		}
	]
}
