{
	"asset":{
		"generator":"Khronos glTF Blender I/O v4.0.44",
		"version":"2.0"
	},
	"scene":0,
	"scenes":[
		{
			"name":"Scene",
			"nodes":[
				0
			]
		}
	],
	"nodes":[
		{
			"mesh":0,
			"name":"Flower_7_Group"
		}
	],
	"materials":[
		{
			"alphaCutoff":0.20000000298023224,
			"alphaMode":"MASK",
			"doubleSided":true,
			"name":"Leaves",
			"pbrMetallicRoughness":{
				"baseColorTexture":{
					"index":0
				},
				"metallicFactor":0
			}
		},
		{
			"alphaCutoff":0.20000000298023224,
			"alphaMode":"MASK",
			"doubleSided":true,
			"name":"Flowers",
			"pbrMetallicRoughness":{
				"baseColorTexture":{
					"index":1
				},
				"metallicFactor":0
			}
		}
	],
	"meshes":[
		{
			"name":"Cylinder.021",
			"primitives":[
				{
					"attributes":{
						"COLOR_0":0,
						"POSITION":1,
						"NORMAL":2,
						"TEXCOORD_0":3
					},
					"indices":4,
					"material":0
				},
				{
					"attributes":{
						"COLOR_0":5,
						"POSITION":6,
						"NORMAL":7,
						"TEXCOORD_0":8
					},
					"indices":9,
					"material":1
				}
			]
		}
	],
	"textures":[
		{
			"sampler":0,
			"source":0
		},
		{
			"sampler":0,
			"source":1
		}
	],
	"images":[
		{
			"mimeType":"image/png",
			"name":"Leaves",
			"uri":"Leaves.png"
		},
		{
			"mimeType":"image/png",
			"name":"Flowers",
			"uri":"Flowers.png"
		}
	],
	"accessors":[
		{
			"bufferView":0,
			"componentType":5123,
			"count":621,
			"normalized":true,
			"type":"VEC4"
		},
		{
			"bufferView":1,
			"componentType":5126,
			"count":621,
			"max":[
				1.0061899423599243,
				1.419656753540039,
				0.7452094554901123
			],
			"min":[
				-0.8324658274650574,
				-0.01723620295524597,
				-1.0902783870697021
			],
			"type":"VEC3"
		},
		{
			"bufferView":2,
			"componentType":5126,
			"count":621,
			"type":"VEC3"
		},
		{
			"bufferView":3,
			"componentType":5126,
			"count":621,
			"type":"VEC2"
		},
		{
			"bufferView":4,
			"componentType":5123,
			"count":2445,
			"type":"SCALAR"
		},
		{
			"bufferView":5,
			"componentType":5123,
			"count":256,
			"normalized":true,
			"type":"VEC4"
		},
		{
			"bufferView":6,
			"componentType":5126,
			"count":256,
			"max":[
				0.864199161529541,
				1.6975308656692505,
				0.5235364437103271
			],
			"min":[
				-0.7845069169998169,
				1.0817126035690308,
				-0.9418751001358032
			],
			"type":"VEC3"
		},
		{
			"bufferView":7,
			"componentType":5126,
			"count":256,
			"type":"VEC3"
		},
		{
			"bufferView":8,
			"componentType":5126,
			"count":256,
			"type":"VEC2"
		},
		{
			"bufferView":9,
			"componentType":5123,
			"count":789,
			"type":"SCALAR"
		}
	],
	"bufferViews":[
		{
			"buffer":0,
			"byteLength":4968,
			"byteOffset":0,
			"target":34962
		},
		{
			"buffer":0,
			"byteLength":7452,
			"byteOffset":4968,
			"target":34962
		},
		{
			"buffer":0,
			"byteLength":7452,
			"byteOffset":12420,
			"target":34962
		},
		{
			"buffer":0,
			"byteLength":4968,
			"byteOffset":19872,
			"target":34962
		},
		{
			"buffer":0,
			"byteLength":4890,
			"byteOffset":24840,
			"target":34963
		},
		{
			"buffer":0,
			"byteLength":2048,
			"byteOffset":29732,
			"target":34962
		},
		{
			"buffer":0,
			"byteLength":3072,
			"byteOffset":31780,
			"target":34962
		},
		{
			"buffer":0,
			"byteLength":3072,
			"byteOffset":34852,
			"target":34962
		},
		{
			"buffer":0,
			"byteLength":2048,
			"byteOffset":37924,
			"target":34962
		},
		{
			"buffer":0,
			"byteLength":1578,
			"byteOffset":39972,
			"target":34963
		}
	],
	"samplers":[
		{
			"magFilter":9729,
			"minFilter":9987
		}
	],
	"buffers":[
		{
			"byteLength":41552,
			"uri":"Flower_7_Group.bin"
		}
	]
}
