{
	"asset":{
		"generator":"Khronos glTF Blender I/O v4.0.44",
		"version":"2.0"
	},
	"scene":0,
	"scenes":[
		{
			"name":"Scene",
			"nodes":[
				0
			]
		}
	],
	"nodes":[
		{
			"mesh":0,
			"name":"GiantPine_2"
		}
	],
	"materials":[
		{
			"doubleSided":true,
			"name":"Bark_Pine",
			"normalTexture":{
				"index":0
			},
			"pbrMetallicRoughness":{
				"baseColorTexture":{
					"index":1
				},
				"metallicFactor":0
			}
		},
		{
			"alphaCutoff":0.20000000298023224,
			"alphaMode":"MASK",
			"doubleSided":true,
			"name":"Leaves_GiantPine",
			"pbrMetallicRoughness":{
				"baseColorTexture":{
					"index":2
				},
				"metallicFactor":0
			}
		}
	],
	"meshes":[
		{
			"name":"tree.002",
			"primitives":[
				{
					"attributes":{
						"COLOR_0":0,
						"POSITION":1,
						"NORMAL":2,
						"TEXCOORD_0":3
					},
					"indices":4,
					"material":0
				},
				{
					"attributes":{
						"COLOR_0":5,
						"POSITION":6,
						"NORMAL":7,
						"TEXCOORD_0":8
					},
					"indices":9,
					"material":1
				}
			]
		}
	],
	"textures":[
		{
			"sampler":0,
			"source":0
		},
		{
			"sampler":0,
			"source":1
		},
		{
			"sampler":0,
			"source":2
		}
	],
	"images":[
		{
			"mimeType":"image/png",
			"name":"Bark_PineTree_Normal",
			"uri":"Bark_PineTree_Normal.png"
		},
		{
			"mimeType":"image/png",
			"name":"Bark_PineTree",
			"uri":"Bark_PineTree.png"
		},
		{
			"mimeType":"image/png",
			"name":"Leaves_GiantPine_C",
			"uri":"Leaves_GiantPine_C.png"
		}
	],
	"accessors":[
		{
			"bufferView":0,
			"componentType":5126,
			"count":7900,
			"type":"VEC4"
		},
		{
			"bufferView":1,
			"componentType":5126,
			"count":7900,
			"max":[
				3.171092987060547,
				16.28522300720215,
				3.799510955810547
			],
			"min":[
				-4.803536415100098,
				-0.29480433464050293,
				-4.2281599044799805
			],
			"type":"VEC3"
		},
		{
			"bufferView":2,
			"componentType":5126,
			"count":7900,
			"type":"VEC3"
		},
		{
			"bufferView":3,
			"componentType":5126,
			"count":7900,
			"type":"VEC2"
		},
		{
			"bufferView":4,
			"componentType":5123,
			"count":17406,
			"type":"SCALAR"
		},
		{
			"bufferView":5,
			"componentType":5126,
			"count":4354,
			"type":"VEC4"
		},
		{
			"bufferView":6,
			"componentType":5126,
			"count":4354,
			"max":[
				5.794168472290039,
				16.609325408935547,
				5.9890241622924805
			],
			"min":[
				-6.962386131286621,
				4.093211650848389,
				-6.458436012268066
			],
			"type":"VEC3"
		},
		{
			"bufferView":7,
			"componentType":5126,
			"count":4354,
			"type":"VEC3"
		},
		{
			"bufferView":8,
			"componentType":5126,
			"count":4354,
			"type":"VEC2"
		},
		{
			"bufferView":9,
			"componentType":5123,
			"count":4794,
			"type":"SCALAR"
		}
	],
	"bufferViews":[
		{
			"buffer":0,
			"byteLength":126400,
			"byteOffset":0,
			"target":34962
		},
		{
			"buffer":0,
			"byteLength":94800,
			"byteOffset":126400,
			"target":34962
		},
		{
			"buffer":0,
			"byteLength":94800,
			"byteOffset":221200,
			"target":34962
		},
		{
			"buffer":0,
			"byteLength":63200,
			"byteOffset":316000,
			"target":34962
		},
		{
			"buffer":0,
			"byteLength":34812,
			"byteOffset":379200,
			"target":34963
		},
		{
			"buffer":0,
			"byteLength":69664,
			"byteOffset":414012,
			"target":34962
		},
		{
			"buffer":0,
			"byteLength":52248,
			"byteOffset":483676,
			"target":34962
		},
		{
			"buffer":0,
			"byteLength":52248,
			"byteOffset":535924,
			"target":34962
		},
		{
			"buffer":0,
			"byteLength":34832,
			"byteOffset":588172,
			"target":34962
		},
		{
			"buffer":0,
			"byteLength":9588,
			"byteOffset":623004,
			"target":34963
		}
	],
	"samplers":[
		{
			"magFilter":9729,
			"minFilter":9987
		}
	],
	"buffers":[
		{
			"byteLength":632592,
			"uri":"GiantPine_2.bin"
		}
	]
}
