{
	"asset":{
		"generator":"Khronos glTF Blender I/O v4.0.44",
		"version":"2.0"
	},
	"scene":0,
	"scenes":[
		{
			"name":"Scene",
			"nodes":[
				0
			]
		}
	],
	"nodes":[
		{
			"mesh":0,
			"name":"GiantPine_1"
		}
	],
	"materials":[
		{
			"doubleSided":true,
			"name":"Bark_Pine",
			"normalTexture":{
				"index":0
			},
			"pbrMetallicRoughness":{
				"baseColorTexture":{
					"index":1
				},
				"metallicFactor":0
			}
		},
		{
			"alphaCutoff":0.20000000298023224,
			"alphaMode":"MASK",
			"doubleSided":true,
			"name":"Leaves_GiantPine",
			"pbrMetallicRoughness":{
				"baseColorTexture":{
					"index":2
				},
				"metallicFactor":0
			}
		}
	],
	"meshes":[
		{
			"name":"tree.001",
			"primitives":[
				{
					"attributes":{
						"COLOR_0":0,
						"POSITION":1,
						"NORMAL":2,
						"TEXCOORD_0":3
					},
					"indices":4,
					"material":0
				},
				{
					"attributes":{
						"COLOR_0":5,
						"POSITION":6,
						"NORMAL":7,
						"TEXCOORD_0":8
					},
					"indices":9,
					"material":1
				}
			]
		}
	],
	"textures":[
		{
			"sampler":0,
			"source":0
		},
		{
			"sampler":0,
			"source":1
		},
		{
			"sampler":0,
			"source":2
		}
	],
	"images":[
		{
			"mimeType":"image/png",
			"name":"Bark_PineTree_Normal",
			"uri":"Bark_PineTree_Normal.png"
		},
		{
			"mimeType":"image/png",
			"name":"Bark_PineTree",
			"uri":"Bark_PineTree.png"
		},
		{
			"mimeType":"image/png",
			"name":"Leaves_GiantPine_C",
			"uri":"Leaves_GiantPine_C.png"
		}
	],
	"accessors":[
		{
			"bufferView":0,
			"componentType":5126,
			"count":7837,
			"type":"VEC4"
		},
		{
			"bufferView":1,
			"componentType":5126,
			"count":7837,
			"max":[
				3.3098320960998535,
				16.5961856842041,
				2.8259711265563965
			],
			"min":[
				-3.3327512741088867,
				-0.29480433464050293,
				-3.4401278495788574
			],
			"type":"VEC3"
		},
		{
			"bufferView":2,
			"componentType":5126,
			"count":7837,
			"type":"VEC3"
		},
		{
			"bufferView":3,
			"componentType":5126,
			"count":7837,
			"type":"VEC2"
		},
		{
			"bufferView":4,
			"componentType":5123,
			"count":17670,
			"type":"SCALAR"
		},
		{
			"bufferView":5,
			"componentType":5126,
			"count":4301,
			"type":"VEC4"
		},
		{
			"bufferView":6,
			"componentType":5126,
			"count":4301,
			"max":[
				4.5471110343933105,
				16.8702392578125,
				4.605040550231934
			],
			"min":[
				-4.638272285461426,
				1.1379011869430542,
				-5.33949089050293
			],
			"type":"VEC3"
		},
		{
			"bufferView":7,
			"componentType":5126,
			"count":4301,
			"type":"VEC3"
		},
		{
			"bufferView":8,
			"componentType":5126,
			"count":4301,
			"type":"VEC2"
		},
		{
			"bufferView":9,
			"componentType":5123,
			"count":4776,
			"type":"SCALAR"
		}
	],
	"bufferViews":[
		{
			"buffer":0,
			"byteLength":125392,
			"byteOffset":0,
			"target":34962
		},
		{
			"buffer":0,
			"byteLength":94044,
			"byteOffset":125392,
			"target":34962
		},
		{
			"buffer":0,
			"byteLength":94044,
			"byteOffset":219436,
			"target":34962
		},
		{
			"buffer":0,
			"byteLength":62696,
			"byteOffset":313480,
			"target":34962
		},
		{
			"buffer":0,
			"byteLength":35340,
			"byteOffset":376176,
			"target":34963
		},
		{
			"buffer":0,
			"byteLength":68816,
			"byteOffset":411516,
			"target":34962
		},
		{
			"buffer":0,
			"byteLength":51612,
			"byteOffset":480332,
			"target":34962
		},
		{
			"buffer":0,
			"byteLength":51612,
			"byteOffset":531944,
			"target":34962
		},
		{
			"buffer":0,
			"byteLength":34408,
			"byteOffset":583556,
			"target":34962
		},
		{
			"buffer":0,
			"byteLength":9552,
			"byteOffset":617964,
			"target":34963
		}
	],
	"samplers":[
		{
			"magFilter":9729,
			"minFilter":9987
		}
	],
	"buffers":[
		{
			"byteLength":627516,
			"uri":"GiantPine_1.bin"
		}
	]
}
