{
	"asset":{
		"generator":"Khronos glTF Blender I/O v4.0.44",
		"version":"2.0"
	},
	"scene":0,
	"scenes":[
		{
			"name":"Scene",
			"nodes":[
				0
			]
		}
	],
	"nodes":[
		{
			"mesh":0,
			"name":"GiantPine_4"
		}
	],
	"materials":[
		{
			"doubleSided":true,
			"name":"Bark_Pine",
			"normalTexture":{
				"index":0
			},
			"pbrMetallicRoughness":{
				"baseColorTexture":{
					"index":1
				},
				"metallicFactor":0
			}
		},
		{
			"alphaCutoff":0.20000000298023224,
			"alphaMode":"MASK",
			"doubleSided":true,
			"name":"Leaves_GiantPine",
			"pbrMetallicRoughness":{
				"baseColorTexture":{
					"index":2
				},
				"metallicFactor":0
			}
		}
	],
	"meshes":[
		{
			"name":"tree.048",
			"primitives":[
				{
					"attributes":{
						"COLOR_0":0,
						"POSITION":1,
						"NORMAL":2,
						"TEXCOORD_0":3
					},
					"indices":4,
					"material":0
				},
				{
					"attributes":{
						"COLOR_0":5,
						"POSITION":6,
						"NORMAL":7,
						"TEXCOORD_0":8
					},
					"indices":9,
					"material":1
				}
			]
		}
	],
	"textures":[
		{
			"sampler":0,
			"source":0
		},
		{
			"sampler":0,
			"source":1
		},
		{
			"sampler":0,
			"source":2
		}
	],
	"images":[
		{
			"mimeType":"image/png",
			"name":"Bark_PineTree_Normal",
			"uri":"Bark_PineTree_Normal.png"
		},
		{
			"mimeType":"image/png",
			"name":"Bark_PineTree",
			"uri":"Bark_PineTree.png"
		},
		{
			"mimeType":"image/png",
			"name":"Leaves_GiantPine_C",
			"uri":"Leaves_GiantPine_C.png"
		}
	],
	"accessors":[
		{
			"bufferView":0,
			"componentType":5126,
			"count":7484,
			"type":"VEC4"
		},
		{
			"bufferView":1,
			"componentType":5126,
			"count":7484,
			"max":[
				4.385861396789551,
				16.142576217651367,
				3.616036891937256
			],
			"min":[
				-3.9705328941345215,
				-0.29480433464050293,
				-4.7972307205200195
			],
			"type":"VEC3"
		},
		{
			"bufferView":2,
			"componentType":5126,
			"count":7484,
			"type":"VEC3"
		},
		{
			"bufferView":3,
			"componentType":5126,
			"count":7484,
			"type":"VEC2"
		},
		{
			"bufferView":4,
			"componentType":5123,
			"count":16944,
			"type":"SCALAR"
		},
		{
			"bufferView":5,
			"componentType":5126,
			"count":3112,
			"type":"VEC4"
		},
		{
			"bufferView":6,
			"componentType":5126,
			"count":3112,
			"max":[
				6.693470001220703,
				16.386842727661133,
				5.953104019165039
			],
			"min":[
				-6.766211986541748,
				6.909540176391602,
				-6.356407642364502
			],
			"type":"VEC3"
		},
		{
			"bufferView":7,
			"componentType":5126,
			"count":3112,
			"type":"VEC3"
		},
		{
			"bufferView":8,
			"componentType":5126,
			"count":3112,
			"type":"VEC2"
		},
		{
			"bufferView":9,
			"componentType":5123,
			"count":3438,
			"type":"SCALAR"
		}
	],
	"bufferViews":[
		{
			"buffer":0,
			"byteLength":119744,
			"byteOffset":0,
			"target":34962
		},
		{
			"buffer":0,
			"byteLength":89808,
			"byteOffset":119744,
			"target":34962
		},
		{
			"buffer":0,
			"byteLength":89808,
			"byteOffset":209552,
			"target":34962
		},
		{
			"buffer":0,
			"byteLength":59872,
			"byteOffset":299360,
			"target":34962
		},
		{
			"buffer":0,
			"byteLength":33888,
			"byteOffset":359232,
			"target":34963
		},
		{
			"buffer":0,
			"byteLength":49792,
			"byteOffset":393120,
			"target":34962
		},
		{
			"buffer":0,
			"byteLength":37344,
			"byteOffset":442912,
			"target":34962
		},
		{
			"buffer":0,
			"byteLength":37344,
			"byteOffset":480256,
			"target":34962
		},
		{
			"buffer":0,
			"byteLength":24896,
			"byteOffset":517600,
			"target":34962
		},
		{
			"buffer":0,
			"byteLength":6876,
			"byteOffset":542496,
			"target":34963
		}
	],
	"samplers":[
		{
			"magFilter":9729,
			"minFilter":9987
		}
	],
	"buffers":[
		{
			"byteLength":549372,
			"uri":"GiantPine_4.bin"
		}
	]
}
