{
	"asset":{
		"generator":"Khronos glTF Blender I/O v4.0.44",
		"version":"2.0"
	},
	"scene":0,
	"scenes":[
		{
			"name":"Scene",
			"nodes":[
				0
			]
		}
	],
	"nodes":[
		{
			"mesh":0,
			"name":"GiantPine_5"
		}
	],
	"materials":[
		{
			"doubleSided":true,
			"name":"Bark_Pine",
			"normalTexture":{
				"index":0
			},
			"pbrMetallicRoughness":{
				"baseColorTexture":{
					"index":1
				},
				"metallicFactor":0
			}
		},
		{
			"alphaCutoff":0.20000000298023224,
			"alphaMode":"MASK",
			"doubleSided":true,
			"name":"Leaves_GiantPine",
			"pbrMetallicRoughness":{
				"baseColorTexture":{
					"index":2
				},
				"metallicFactor":0
			}
		}
	],
	"meshes":[
		{
			"name":"tree.022",
			"primitives":[
				{
					"attributes":{
						"COLOR_0":0,
						"POSITION":1,
						"NORMAL":2,
						"TEXCOORD_0":3
					},
					"indices":4,
					"material":0
				},
				{
					"attributes":{
						"COLOR_0":5,
						"POSITION":6,
						"NORMAL":7,
						"TEXCOORD_0":8
					},
					"indices":9,
					"material":1
				}
			]
		}
	],
	"textures":[
		{
			"sampler":0,
			"source":0
		},
		{
			"sampler":0,
			"source":1
		},
		{
			"sampler":0,
			"source":2
		}
	],
	"images":[
		{
			"mimeType":"image/png",
			"name":"Bark_PineTree_Normal",
			"uri":"Bark_PineTree_Normal.png"
		},
		{
			"mimeType":"image/png",
			"name":"Bark_PineTree",
			"uri":"Bark_PineTree.png"
		},
		{
			"mimeType":"image/png",
			"name":"Leaves_GiantPine_C",
			"uri":"Leaves_GiantPine_C.png"
		}
	],
	"accessors":[
		{
			"bufferView":0,
			"componentType":5126,
			"count":7621,
			"type":"VEC4"
		},
		{
			"bufferView":1,
			"componentType":5126,
			"count":7621,
			"max":[
				11.089265823364258,
				15.435893058776855,
				3.766444444656372
			],
			"min":[
				-1.2480990886688232,
				-0.29480433464050293,
				-8.503828048706055
			],
			"type":"VEC3"
		},
		{
			"bufferView":2,
			"componentType":5126,
			"count":7621,
			"type":"VEC3"
		},
		{
			"bufferView":3,
			"componentType":5126,
			"count":7621,
			"type":"VEC2"
		},
		{
			"bufferView":4,
			"componentType":5123,
			"count":16944,
			"type":"SCALAR"
		},
		{
			"bufferView":5,
			"componentType":5126,
			"count":3649,
			"type":"VEC4"
		},
		{
			"bufferView":6,
			"componentType":5126,
			"count":3649,
			"max":[
				13.24589729309082,
				15.643254280090332,
				4.450260162353516
			],
			"min":[
				-2.645462989807129,
				6.942188739776611,
				-11.215547561645508
			],
			"type":"VEC3"
		},
		{
			"bufferView":7,
			"componentType":5126,
			"count":3649,
			"type":"VEC3"
		},
		{
			"bufferView":8,
			"componentType":5126,
			"count":3649,
			"type":"VEC2"
		},
		{
			"bufferView":9,
			"componentType":5123,
			"count":4020,
			"type":"SCALAR"
		}
	],
	"bufferViews":[
		{
			"buffer":0,
			"byteLength":121936,
			"byteOffset":0,
			"target":34962
		},
		{
			"buffer":0,
			"byteLength":91452,
			"byteOffset":121936,
			"target":34962
		},
		{
			"buffer":0,
			"byteLength":91452,
			"byteOffset":213388,
			"target":34962
		},
		{
			"buffer":0,
			"byteLength":60968,
			"byteOffset":304840,
			"target":34962
		},
		{
			"buffer":0,
			"byteLength":33888,
			"byteOffset":365808,
			"target":34963
		},
		{
			"buffer":0,
			"byteLength":58384,
			"byteOffset":399696,
			"target":34962
		},
		{
			"buffer":0,
			"byteLength":43788,
			"byteOffset":458080,
			"target":34962
		},
		{
			"buffer":0,
			"byteLength":43788,
			"byteOffset":501868,
			"target":34962
		},
		{
			"buffer":0,
			"byteLength":29192,
			"byteOffset":545656,
			"target":34962
		},
		{
			"buffer":0,
			"byteLength":8040,
			"byteOffset":574848,
			"target":34963
		}
	],
	"samplers":[
		{
			"magFilter":9729,
			"minFilter":9987
		}
	],
	"buffers":[
		{
			"byteLength":582888,
			"uri":"GiantPine_5.bin"
		}
	]
}
