{
	"asset":{
		"generator":"Khronos glTF Blender I/O v4.0.44",
		"version":"2.0"
	},
	"scene":0,
	"scenes":[
		{
			"name":"Scene",
			"nodes":[
				0
			]
		}
	],
	"nodes":[
		{
			"mesh":0,
			"name":"Grass_Wheat"
		}
	],
	"materials":[
		{
			"doubleSided":true,
			"name":"Grass",
			"pbrMetallicRoughness":{
				"baseColorTexture":{
					"index":0
				},
				"metallicFactor":0
			}
		}
	],
	"meshes":[
		{
			"name":"Plane.012",
			"primitives":[
				{
					"attributes":{
						"COLOR_0":0,
						"POSITION":1,
						"NORMAL":2,
						"TEXCOORD_0":3
					},
					"indices":4,
					"material":0
				}
			]
		}
	],
	"textures":[
		{
			"sampler":0,
			"source":0
		}
	],
	"images":[
		{
			"mimeType":"image/png",
			"name":"Grass",
			"uri":"Grass.png"
		}
	],
	"accessors":[
		{
			"bufferView":0,
			"componentType":5123,
			"count":1530,
			"normalized":true,
			"type":"VEC4"
		},
		{
			"bufferView":1,
			"componentType":5126,
			"count":1530,
			"max":[
				0.5541585087776184,
				1.7459251880645752,
				0.4607310891151428
			],
			"min":[
				-0.5564020872116089,
				-0.03364109992980957,
				-0.5507827401161194
			],
			"type":"VEC3"
		},
		{
			"bufferView":2,
			"componentType":5126,
			"count":1530,
			"type":"VEC3"
		},
		{
			"bufferView":3,
			"componentType":5126,
			"count":1530,
			"type":"VEC2"
		},
		{
			"bufferView":4,
			"componentType":5123,
			"count":3570,
			"type":"SCALAR"
		}
	],
	"bufferViews":[
		{
			"buffer":0,
			"byteLength":12240,
			"byteOffset":0,
			"target":34962
		},
		{
			"buffer":0,
			"byteLength":18360,
			"byteOffset":12240,
			"target":34962
		},
		{
			"buffer":0,
			"byteLength":18360,
			"byteOffset":30600,
			"target":34962
		},
		{
			"buffer":0,
			"byteLength":12240,
			"byteOffset":48960,
			"target":34962
		},
		{
			"buffer":0,
			"byteLength":7140,
			"byteOffset":61200,
			"target":34963
		}
	],
	"samplers":[
		{
			"magFilter":9729,
			"minFilter":9987
		}
	],
	"buffers":[
		{
			"byteLength":68340,
			"uri":"Grass_Wheat.bin"
		}
	]
}
