{
	"asset":{
		"generator":"Khronos glTF Blender I/O v4.0.44",
		"version":"2.0"
	},
	"scene":0,
	"scenes":[
		{
			"name":"Scene",
			"nodes":[
				0
			]
		}
	],
	"nodes":[
		{
			"mesh":0,
			"name":"Grass_Wide_Tall"
		}
	],
	"materials":[
		{
			"doubleSided":true,
			"name":"Grass",
			"pbrMetallicRoughness":{
				"baseColorTexture":{
					"index":0
				},
				"metallicFactor":0
			}
		}
	],
	"meshes":[
		{
			"name":"Plane.007",
			"primitives":[
				{
					"attributes":{
						"COLOR_0":0,
						"POSITION":1,
						"NORMAL":2,
						"TEXCOORD_0":3
					},
					"indices":4,
					"material":0
				}
			]
		}
	],
	"textures":[
		{
			"sampler":0,
			"source":0
		}
	],
	"images":[
		{
			"mimeType":"image/png",
			"name":"Grass",
			"uri":"Grass.png"
		}
	],
	"accessors":[
		{
			"bufferView":0,
			"componentType":5123,
			"count":417,
			"normalized":true,
			"type":"VEC4"
		},
		{
			"bufferView":1,
			"componentType":5126,
			"count":417,
			"max":[
				0.538122296333313,
				1.5222324132919312,
				0.6071226000785828
			],
			"min":[
				-0.6134548187255859,
				-0.08717673271894455,
				-0.5045849680900574
			],
			"type":"VEC3"
		},
		{
			"bufferView":2,
			"componentType":5126,
			"count":417,
			"type":"VEC3"
		},
		{
			"bufferView":3,
			"componentType":5126,
			"count":417,
			"type":"VEC2"
		},
		{
			"bufferView":4,
			"componentType":5123,
			"count":1518,
			"type":"SCALAR"
		}
	],
	"bufferViews":[
		{
			"buffer":0,
			"byteLength":3336,
			"byteOffset":0,
			"target":34962
		},
		{
			"buffer":0,
			"byteLength":5004,
			"byteOffset":3336,
			"target":34962
		},
		{
			"buffer":0,
			"byteLength":5004,
			"byteOffset":8340,
			"target":34962
		},
		{
			"buffer":0,
			"byteLength":3336,
			"byteOffset":13344,
			"target":34962
		},
		{
			"buffer":0,
			"byteLength":3036,
			"byteOffset":16680,
			"target":34963
		}
	],
	"samplers":[
		{
			"magFilter":9729,
			"minFilter":9987
		}
	],
	"buffers":[
		{
			"byteLength":19716,
			"uri":"Grass_Wide_Tall.bin"
		}
	]
}
