{
	"asset":{
		"generator":"Khronos glTF Blender I/O v4.0.44",
		"version":"2.0"
	},
	"scene":0,
	"scenes":[
		{
			"name":"Scene",
			"nodes":[
				0
			]
		}
	],
	"nodes":[
		{
			"mesh":0,
			"name":"Mushroom_Oyster"
		}
	],
	"materials":[
		{
			"doubleSided":true,
			"name":"Mushrooms",
			"pbrMetallicRoughness":{
				"baseColorTexture":{
					"index":0
				},
				"metallicFactor":0
			}
		}
	],
	"meshes":[
		{
			"name":"Cube.025",
			"primitives":[
				{
					"attributes":{
						"POSITION":0,
						"NORMAL":1,
						"TEXCOORD_0":2
					},
					"indices":3,
					"material":0
				}
			]
		}
	],
	"textures":[
		{
			"sampler":0,
			"source":0
		}
	],
	"images":[
		{
			"mimeType":"image/png",
			"name":"Mushrooms",
			"uri":"Mushrooms.png"
		}
	],
	"accessors":[
		{
			"bufferView":0,
			"componentType":5126,
			"count":1047,
			"max":[
				1.3203638792037964,
				1.607744812965393,
				1.2459725141525269
			],
			"min":[
				-1.0733827352523804,
				-0.17178910970687866,
				-0.15129603445529938
			],
			"type":"VEC3"
		},
		{
			"bufferView":1,
			"componentType":5126,
			"count":1047,
			"type":"VEC3"
		},
		{
			"bufferView":2,
			"componentType":5126,
			"count":1047,
			"type":"VEC2"
		},
		{
			"bufferView":3,
			"componentType":5123,
			"count":4920,
			"type":"SCALAR"
		}
	],
	"bufferViews":[
		{
			"buffer":0,
			"byteLength":12564,
			"byteOffset":0,
			"target":34962
		},
		{
			"buffer":0,
			"byteLength":12564,
			"byteOffset":12564,
			"target":34962
		},
		{
			"buffer":0,
			"byteLength":8376,
			"byteOffset":25128,
			"target":34962
		},
		{
			"buffer":0,
			"byteLength":9840,
			"byteOffset":33504,
			"target":34963
		}
	],
	"samplers":[
		{
			"magFilter":9729,
			"minFilter":9987
		}
	],
	"buffers":[
		{
			"byteLength":43344,
			"uri":"Mushroom_Oyster.bin"
		}
	]
}
