{
	"asset":{
		"generator":"Khronos glTF Blender I/O v4.0.44",
		"version":"2.0"
	},
	"scene":0,
	"scenes":[
		{
			"name":"Scene",
			"nodes":[
				0
			]
		}
	],
	"nodes":[
		{
			"mesh":0,
			"name":"Plant_2"
		}
	],
	"materials":[
		{
			"alphaCutoff":0.20000000298023224,
			"alphaMode":"MASK",
			"doubleSided":true,
			"name":"Leaves",
			"pbrMetallicRoughness":{
				"baseColorTexture":{
					"index":0
				},
				"metallicFactor":0
			}
		}
	],
	"meshes":[
		{
			"name":"Plane.047",
			"primitives":[
				{
					"attributes":{
						"COLOR_0":0,
						"POSITION":1,
						"NORMAL":2,
						"TEXCOORD_0":3
					},
					"indices":4,
					"material":0
				}
			]
		}
	],
	"textures":[
		{
			"sampler":0,
			"source":0
		}
	],
	"images":[
		{
			"mimeType":"image/png",
			"name":"Leaves",
			"uri":"Leaves.png"
		}
	],
	"accessors":[
		{
			"bufferView":0,
			"componentType":5123,
			"count":365,
			"normalized":true,
			"type":"VEC4"
		},
		{
			"bufferView":1,
			"componentType":5126,
			"count":365,
			"max":[
				0.7851901054382324,
				1.5558031797409058,
				0.6168285608291626
			],
			"min":[
				-0.5884183049201965,
				-0.0032689725048840046,
				-0.7638831734657288
			],
			"type":"VEC3"
		},
		{
			"bufferView":2,
			"componentType":5126,
			"count":365,
			"type":"VEC3"
		},
		{
			"bufferView":3,
			"componentType":5126,
			"count":365,
			"type":"VEC2"
		},
		{
			"bufferView":4,
			"componentType":5123,
			"count":1338,
			"type":"SCALAR"
		}
	],
	"bufferViews":[
		{
			"buffer":0,
			"byteLength":2920,
			"byteOffset":0,
			"target":34962
		},
		{
			"buffer":0,
			"byteLength":4380,
			"byteOffset":2920,
			"target":34962
		},
		{
			"buffer":0,
			"byteLength":4380,
			"byteOffset":7300,
			"target":34962
		},
		{
			"buffer":0,
			"byteLength":2920,
			"byteOffset":11680,
			"target":34962
		},
		{
			"buffer":0,
			"byteLength":2676,
			"byteOffset":14600,
			"target":34963
		}
	],
	"samplers":[
		{
			"magFilter":9729,
			"minFilter":9987
		}
	],
	"buffers":[
		{
			"byteLength":17276,
			"uri":"Plant_2.bin"
		}
	]
}
