{
	"asset":{
		"generator":"Khronos glTF Blender I/O v4.0.44",
		"version":"2.0"
	},
	"scene":0,
	"scenes":[
		{
			"name":"Scene",
			"nodes":[
				0
			]
		}
	],
	"nodes":[
		{
			"mesh":0,
			"name":"Plant_5"
		}
	],
	"materials":[
		{
			"alphaCutoff":0.20000000298023224,
			"alphaMode":"MASK",
			"doubleSided":true,
			"name":"Leaves",
			"pbrMetallicRoughness":{
				"baseColorTexture":{
					"index":0
				},
				"metallicFactor":0
			}
		}
	],
	"meshes":[
		{
			"name":"Plane.004",
			"primitives":[
				{
					"attributes":{
						"COLOR_0":0,
						"POSITION":1,
						"NORMAL":2,
						"TEXCOORD_0":3
					},
					"indices":4,
					"material":0
				}
			]
		}
	],
	"textures":[
		{
			"sampler":0,
			"source":0
		}
	],
	"images":[
		{
			"mimeType":"image/png",
			"name":"Leaves",
			"uri":"Leaves.png"
		}
	],
	"accessors":[
		{
			"bufferView":0,
			"componentType":5123,
			"count":375,
			"normalized":true,
			"type":"VEC4"
		},
		{
			"bufferView":1,
			"componentType":5126,
			"count":375,
			"max":[
				0.7328789830207825,
				1.3756766319274902,
				0.7494714260101318
			],
			"min":[
				-0.6734462380409241,
				-0.015683703124523163,
				-0.7699691653251648
			],
			"type":"VEC3"
		},
		{
			"bufferView":2,
			"componentType":5126,
			"count":375,
			"type":"VEC3"
		},
		{
			"bufferView":3,
			"componentType":5126,
			"count":375,
			"type":"VEC2"
		},
		{
			"bufferView":4,
			"componentType":5123,
			"count":1650,
			"type":"SCALAR"
		}
	],
	"bufferViews":[
		{
			"buffer":0,
			"byteLength":3000,
			"byteOffset":0,
			"target":34962
		},
		{
			"buffer":0,
			"byteLength":4500,
			"byteOffset":3000,
			"target":34962
		},
		{
			"buffer":0,
			"byteLength":4500,
			"byteOffset":7500,
			"target":34962
		},
		{
			"buffer":0,
			"byteLength":3000,
			"byteOffset":12000,
			"target":34962
		},
		{
			"buffer":0,
			"byteLength":3300,
			"byteOffset":15000,
			"target":34963
		}
	],
	"samplers":[
		{
			"magFilter":9729,
			"minFilter":9987
		}
	],
	"buffers":[
		{
			"byteLength":18300,
			"uri":"Plant_5.bin"
		}
	]
}
