{
	"asset":{
		"generator":"Khronos glTF Blender I/O v4.0.44",
		"version":"2.0"
	},
	"scene":0,
	"scenes":[
		{
			"name":"Scene",
			"nodes":[
				0
			]
		}
	],
	"nodes":[
		{
			"mesh":0,
			"name":"Rock_Big_1"
		}
	],
	"materials":[
		{
			"doubleSided":true,
			"name":"Rocks",
			"pbrMetallicRoughness":{
				"baseColorTexture":{
					"index":0
				},
				"metallicFactor":0
			}
		}
	],
	"meshes":[
		{
			"name":"Cube_Retopology.001",
			"primitives":[
				{
					"attributes":{
						"POSITION":0,
						"NORMAL":1,
						"TEXCOORD_0":2
					},
					"indices":3,
					"material":0
				}
			]
		}
	],
	"textures":[
		{
			"sampler":0,
			"source":0
		}
	],
	"images":[
		{
			"mimeType":"image/png",
			"name":"Rocks_Diffuse",
			"uri":"Rocks_Diffuse.png"
		}
	],
	"accessors":[
		{
			"bufferView":0,
			"componentType":5126,
			"count":1549,
			"max":[
				2.8137059211730957,
				4.453161239624023,
				2.4469447135925293
			],
			"min":[
				-2.384392261505127,
				-0.12299621850252151,
				-1.9995737075805664
			],
			"type":"VEC3"
		},
		{
			"bufferView":1,
			"componentType":5126,
			"count":1549,
			"type":"VEC3"
		},
		{
			"bufferView":2,
			"componentType":5126,
			"count":1549,
			"type":"VEC2"
		},
		{
			"bufferView":3,
			"componentType":5123,
			"count":5208,
			"type":"SCALAR"
		}
	],
	"bufferViews":[
		{
			"buffer":0,
			"byteLength":18588,
			"byteOffset":0,
			"target":34962
		},
		{
			"buffer":0,
			"byteLength":18588,
			"byteOffset":18588,
			"target":34962
		},
		{
			"buffer":0,
			"byteLength":12392,
			"byteOffset":37176,
			"target":34962
		},
		{
			"buffer":0,
			"byteLength":10416,
			"byteOffset":49568,
			"target":34963
		}
	],
	"samplers":[
		{
			"magFilter":9729,
			"minFilter":9987
		}
	],
	"buffers":[
		{
			"byteLength":59984,
			"uri":"Rock_Big_1.bin"
		}
	]
}
