{
	"asset":{
		"generator":"Khronos glTF Blender I/O v4.0.44",
		"version":"2.0"
	},
	"scene":0,
	"scenes":[
		{
			"name":"Scene",
			"nodes":[
				0
			]
		}
	],
	"nodes":[
		{
			"mesh":0,
			"name":"Rock_Big_2"
		}
	],
	"materials":[
		{
			"doubleSided":true,
			"name":"Rocks",
			"pbrMetallicRoughness":{
				"baseColorTexture":{
					"index":0
				},
				"metallicFactor":0
			}
		}
	],
	"meshes":[
		{
			"name":"Cube.001_Retopology.001",
			"primitives":[
				{
					"attributes":{
						"COLOR_0":0,
						"POSITION":1,
						"NORMAL":2,
						"TEXCOORD_0":3
					},
					"indices":4,
					"material":0
				}
			]
		}
	],
	"textures":[
		{
			"sampler":0,
			"source":0
		}
	],
	"images":[
		{
			"mimeType":"image/png",
			"name":"Rocks_Diffuse",
			"uri":"Rocks_Diffuse.png"
		}
	],
	"accessors":[
		{
			"bufferView":0,
			"componentType":5123,
			"count":1619,
			"normalized":true,
			"type":"VEC4"
		},
		{
			"bufferView":1,
			"componentType":5126,
			"count":1619,
			"max":[
				2.9319777488708496,
				3.279729127883911,
				2.810678243637085
			],
			"min":[
				-2.833585739135742,
				-0.5258944630622864,
				-3.005322217941284
			],
			"type":"VEC3"
		},
		{
			"bufferView":2,
			"componentType":5126,
			"count":1619,
			"type":"VEC3"
		},
		{
			"bufferView":3,
			"componentType":5126,
			"count":1619,
			"type":"VEC2"
		},
		{
			"bufferView":4,
			"componentType":5123,
			"count":5832,
			"type":"SCALAR"
		}
	],
	"bufferViews":[
		{
			"buffer":0,
			"byteLength":12952,
			"byteOffset":0,
			"target":34962
		},
		{
			"buffer":0,
			"byteLength":19428,
			"byteOffset":12952,
			"target":34962
		},
		{
			"buffer":0,
			"byteLength":19428,
			"byteOffset":32380,
			"target":34962
		},
		{
			"buffer":0,
			"byteLength":12952,
			"byteOffset":51808,
			"target":34962
		},
		{
			"buffer":0,
			"byteLength":11664,
			"byteOffset":64760,
			"target":34963
		}
	],
	"samplers":[
		{
			"magFilter":9729,
			"minFilter":9987
		}
	],
	"buffers":[
		{
			"byteLength":76424,
			"uri":"Rock_Big_2.bin"
		}
	]
}
