{
	"asset":{
		"generator":"Khronos glTF Blender I/O v4.0.44",
		"version":"2.0"
	},
	"scene":0,
	"scenes":[
		{
			"name":"Scene",
			"nodes":[
				0
			]
		}
	],
	"nodes":[
		{
			"mesh":0,
			"name":"TallThick_1"
		}
	],
	"materials":[
		{
			"doubleSided":true,
			"name":"Bark_Pine",
			"normalTexture":{
				"index":0
			},
			"pbrMetallicRoughness":{
				"baseColorTexture":{
					"index":1
				},
				"metallicFactor":0
			}
		},
		{
			"alphaCutoff":0.20000000298023224,
			"alphaMode":"MASK",
			"doubleSided":true,
			"name":"Leaves_TallThick",
			"pbrMetallicRoughness":{
				"baseColorTexture":{
					"index":2
				},
				"metallicFactor":0
			}
		}
	],
	"meshes":[
		{
			"name":"tree.033",
			"primitives":[
				{
					"attributes":{
						"COLOR_0":0,
						"POSITION":1,
						"NORMAL":2,
						"TEXCOORD_0":3
					},
					"indices":4,
					"material":0
				},
				{
					"attributes":{
						"COLOR_0":5,
						"POSITION":6,
						"NORMAL":7,
						"TEXCOORD_0":8
					},
					"indices":9,
					"material":1
				}
			]
		}
	],
	"textures":[
		{
			"sampler":0,
			"source":0
		},
		{
			"sampler":0,
			"source":1
		},
		{
			"sampler":0,
			"source":2
		}
	],
	"images":[
		{
			"mimeType":"image/png",
			"name":"Bark_PineTree_Normal",
			"uri":"Bark_PineTree_Normal.png"
		},
		{
			"mimeType":"image/png",
			"name":"Bark_PineTree",
			"uri":"Bark_PineTree.png"
		},
		{
			"mimeType":"image/png",
			"name":"Leaves_TallThick_C",
			"uri":"Leaves_TallThick_C.png"
		}
	],
	"accessors":[
		{
			"bufferView":0,
			"componentType":5126,
			"count":7343,
			"type":"VEC4"
		},
		{
			"bufferView":1,
			"componentType":5126,
			"count":7343,
			"max":[
				3.080413341522217,
				13.644041061401367,
				2.933814525604248
			],
			"min":[
				-3.1918563842773438,
				-0.24244697391986847,
				-3.0198206901550293
			],
			"type":"VEC3"
		},
		{
			"bufferView":2,
			"componentType":5126,
			"count":7343,
			"type":"VEC3"
		},
		{
			"bufferView":3,
			"componentType":5126,
			"count":7343,
			"type":"VEC2"
		},
		{
			"bufferView":4,
			"componentType":5123,
			"count":16704,
			"type":"SCALAR"
		},
		{
			"bufferView":5,
			"componentType":5126,
			"count":4800,
			"type":"VEC4"
		},
		{
			"bufferView":6,
			"componentType":5126,
			"count":4800,
			"max":[
				4.683791637420654,
				14.7347993850708,
				4.577532768249512
			],
			"min":[
				-4.690874099731445,
				5.087426662445068,
				-4.542052268981934
			],
			"type":"VEC3"
		},
		{
			"bufferView":7,
			"componentType":5126,
			"count":4800,
			"type":"VEC3"
		},
		{
			"bufferView":8,
			"componentType":5126,
			"count":4800,
			"type":"VEC2"
		},
		{
			"bufferView":9,
			"componentType":5123,
			"count":7200,
			"type":"SCALAR"
		}
	],
	"bufferViews":[
		{
			"buffer":0,
			"byteLength":117488,
			"byteOffset":0,
			"target":34962
		},
		{
			"buffer":0,
			"byteLength":88116,
			"byteOffset":117488,
			"target":34962
		},
		{
			"buffer":0,
			"byteLength":88116,
			"byteOffset":205604,
			"target":34962
		},
		{
			"buffer":0,
			"byteLength":58744,
			"byteOffset":293720,
			"target":34962
		},
		{
			"buffer":0,
			"byteLength":33408,
			"byteOffset":352464,
			"target":34963
		},
		{
			"buffer":0,
			"byteLength":76800,
			"byteOffset":385872,
			"target":34962
		},
		{
			"buffer":0,
			"byteLength":57600,
			"byteOffset":462672,
			"target":34962
		},
		{
			"buffer":0,
			"byteLength":57600,
			"byteOffset":520272,
			"target":34962
		},
		{
			"buffer":0,
			"byteLength":38400,
			"byteOffset":577872,
			"target":34962
		},
		{
			"buffer":0,
			"byteLength":14400,
			"byteOffset":616272,
			"target":34963
		}
	],
	"samplers":[
		{
			"magFilter":9729,
			"minFilter":9987
		}
	],
	"buffers":[
		{
			"byteLength":630672,
			"uri":"TallThick_1.bin"
		}
	]
}
