{
	"asset":{
		"generator":"Khronos glTF Blender I/O v4.0.44",
		"version":"2.0"
	},
	"scene":0,
	"scenes":[
		{
			"name":"Scene",
			"nodes":[
				0
			]
		}
	],
	"nodes":[
		{
			"mesh":0,
			"name":"TallThick_2"
		}
	],
	"materials":[
		{
			"doubleSided":true,
			"name":"Bark_Pine",
			"normalTexture":{
				"index":0
			},
			"pbrMetallicRoughness":{
				"baseColorTexture":{
					"index":1
				},
				"metallicFactor":0
			}
		},
		{
			"alphaCutoff":0.20000000298023224,
			"alphaMode":"MASK",
			"doubleSided":true,
			"name":"Leaves_TallThick",
			"pbrMetallicRoughness":{
				"baseColorTexture":{
					"index":2
				},
				"metallicFactor":0
			}
		}
	],
	"meshes":[
		{
			"name":"tree.034",
			"primitives":[
				{
					"attributes":{
						"COLOR_0":0,
						"POSITION":1,
						"NORMAL":2,
						"TEXCOORD_0":3
					},
					"indices":4,
					"material":0
				},
				{
					"attributes":{
						"COLOR_0":5,
						"POSITION":6,
						"NORMAL":7,
						"TEXCOORD_0":8
					},
					"indices":9,
					"material":1
				}
			]
		}
	],
	"textures":[
		{
			"sampler":0,
			"source":0
		},
		{
			"sampler":0,
			"source":1
		},
		{
			"sampler":0,
			"source":2
		}
	],
	"images":[
		{
			"mimeType":"image/png",
			"name":"Bark_PineTree_Normal",
			"uri":"Bark_PineTree_Normal.png"
		},
		{
			"mimeType":"image/png",
			"name":"Bark_PineTree",
			"uri":"Bark_PineTree.png"
		},
		{
			"mimeType":"image/png",
			"name":"Leaves_TallThick_C",
			"uri":"Leaves_TallThick_C.png"
		}
	],
	"accessors":[
		{
			"bufferView":0,
			"componentType":5126,
			"count":7275,
			"type":"VEC4"
		},
		{
			"bufferView":1,
			"componentType":5126,
			"count":7275,
			"max":[
				2.5591611862182617,
				13.89206314086914,
				2.2774205207824707
			],
			"min":[
				-2.524479627609253,
				-0.24244697391986847,
				-2.481098175048828
			],
			"type":"VEC3"
		},
		{
			"bufferView":2,
			"componentType":5126,
			"count":7275,
			"type":"VEC3"
		},
		{
			"bufferView":3,
			"componentType":5126,
			"count":7275,
			"type":"VEC2"
		},
		{
			"bufferView":4,
			"componentType":5123,
			"count":16779,
			"type":"SCALAR"
		},
		{
			"bufferView":5,
			"componentType":5126,
			"count":3072,
			"type":"VEC4"
		},
		{
			"bufferView":6,
			"componentType":5126,
			"count":3072,
			"max":[
				4.06121826171875,
				14.933428764343262,
				3.2368788719177246
			],
			"min":[
				-3.798762321472168,
				9.148664474487305,
				-3.832578420639038
			],
			"type":"VEC3"
		},
		{
			"bufferView":7,
			"componentType":5126,
			"count":3072,
			"type":"VEC3"
		},
		{
			"bufferView":8,
			"componentType":5126,
			"count":3072,
			"type":"VEC2"
		},
		{
			"bufferView":9,
			"componentType":5123,
			"count":4608,
			"type":"SCALAR"
		}
	],
	"bufferViews":[
		{
			"buffer":0,
			"byteLength":116400,
			"byteOffset":0,
			"target":34962
		},
		{
			"buffer":0,
			"byteLength":87300,
			"byteOffset":116400,
			"target":34962
		},
		{
			"buffer":0,
			"byteLength":87300,
			"byteOffset":203700,
			"target":34962
		},
		{
			"buffer":0,
			"byteLength":58200,
			"byteOffset":291000,
			"target":34962
		},
		{
			"buffer":0,
			"byteLength":33558,
			"byteOffset":349200,
			"target":34963
		},
		{
			"buffer":0,
			"byteLength":49152,
			"byteOffset":382760,
			"target":34962
		},
		{
			"buffer":0,
			"byteLength":36864,
			"byteOffset":431912,
			"target":34962
		},
		{
			"buffer":0,
			"byteLength":36864,
			"byteOffset":468776,
			"target":34962
		},
		{
			"buffer":0,
			"byteLength":24576,
			"byteOffset":505640,
			"target":34962
		},
		{
			"buffer":0,
			"byteLength":9216,
			"byteOffset":530216,
			"target":34963
		}
	],
	"samplers":[
		{
			"magFilter":9729,
			"minFilter":9987
		}
	],
	"buffers":[
		{
			"byteLength":539432,
			"uri":"TallThick_2.bin"
		}
	]
}
