{
	"asset":{
		"generator":"Khronos glTF Blender I/O v4.0.44",
		"version":"2.0"
	},
	"scene":0,
	"scenes":[
		{
			"name":"Scene",
			"nodes":[
				0
			]
		}
	],
	"nodes":[
		{
			"mesh":0,
			"name":"TallThick_5"
		}
	],
	"materials":[
		{
			"doubleSided":true,
			"name":"Bark_Pine",
			"normalTexture":{
				"index":0
			},
			"pbrMetallicRoughness":{
				"baseColorTexture":{
					"index":1
				},
				"metallicFactor":0
			}
		},
		{
			"alphaCutoff":0.20000000298023224,
			"alphaMode":"MASK",
			"doubleSided":true,
			"name":"Leaves_TallThick",
			"pbrMetallicRoughness":{
				"baseColorTexture":{
					"index":2
				},
				"metallicFactor":0
			}
		}
	],
	"meshes":[
		{
			"name":"tree.037",
			"primitives":[
				{
					"attributes":{
						"COLOR_0":0,
						"POSITION":1,
						"NORMAL":2,
						"TEXCOORD_0":3
					},
					"indices":4,
					"material":0
				},
				{
					"attributes":{
						"COLOR_0":5,
						"POSITION":6,
						"NORMAL":7,
						"TEXCOORD_0":8
					},
					"indices":9,
					"material":1
				}
			]
		}
	],
	"textures":[
		{
			"sampler":0,
			"source":0
		},
		{
			"sampler":0,
			"source":1
		},
		{
			"sampler":0,
			"source":2
		}
	],
	"images":[
		{
			"mimeType":"image/png",
			"name":"Bark_PineTree_Normal",
			"uri":"Bark_PineTree_Normal.png"
		},
		{
			"mimeType":"image/png",
			"name":"Bark_PineTree",
			"uri":"Bark_PineTree.png"
		},
		{
			"mimeType":"image/png",
			"name":"Leaves_TallThick_C",
			"uri":"Leaves_TallThick_C.png"
		}
	],
	"accessors":[
		{
			"bufferView":0,
			"componentType":5126,
			"count":6391,
			"type":"VEC4"
		},
		{
			"bufferView":1,
			"componentType":5126,
			"count":6391,
			"max":[
				2.186967372894287,
				17.092863082885742,
				2.608497142791748
			],
			"min":[
				-3.4468703269958496,
				-0.24244698882102966,
				-2.6127243041992188
			],
			"type":"VEC3"
		},
		{
			"bufferView":2,
			"componentType":5126,
			"count":6391,
			"type":"VEC3"
		},
		{
			"bufferView":3,
			"componentType":5126,
			"count":6391,
			"type":"VEC2"
		},
		{
			"bufferView":4,
			"componentType":5123,
			"count":14430,
			"type":"SCALAR"
		},
		{
			"bufferView":5,
			"componentType":5126,
			"count":4784,
			"type":"VEC4"
		},
		{
			"bufferView":6,
			"componentType":5126,
			"count":4784,
			"max":[
				3.578460693359375,
				18.609037399291992,
				4.352188587188721
			],
			"min":[
				-5.173063278198242,
				5.93949031829834,
				-4.349292278289795
			],
			"type":"VEC3"
		},
		{
			"bufferView":7,
			"componentType":5126,
			"count":4784,
			"type":"VEC3"
		},
		{
			"bufferView":8,
			"componentType":5126,
			"count":4784,
			"type":"VEC2"
		},
		{
			"bufferView":9,
			"componentType":5123,
			"count":7176,
			"type":"SCALAR"
		}
	],
	"bufferViews":[
		{
			"buffer":0,
			"byteLength":102256,
			"byteOffset":0,
			"target":34962
		},
		{
			"buffer":0,
			"byteLength":76692,
			"byteOffset":102256,
			"target":34962
		},
		{
			"buffer":0,
			"byteLength":76692,
			"byteOffset":178948,
			"target":34962
		},
		{
			"buffer":0,
			"byteLength":51128,
			"byteOffset":255640,
			"target":34962
		},
		{
			"buffer":0,
			"byteLength":28860,
			"byteOffset":306768,
			"target":34963
		},
		{
			"buffer":0,
			"byteLength":76544,
			"byteOffset":335628,
			"target":34962
		},
		{
			"buffer":0,
			"byteLength":57408,
			"byteOffset":412172,
			"target":34962
		},
		{
			"buffer":0,
			"byteLength":57408,
			"byteOffset":469580,
			"target":34962
		},
		{
			"buffer":0,
			"byteLength":38272,
			"byteOffset":526988,
			"target":34962
		},
		{
			"buffer":0,
			"byteLength":14352,
			"byteOffset":565260,
			"target":34963
		}
	],
	"samplers":[
		{
			"magFilter":9729,
			"minFilter":9987
		}
	],
	"buffers":[
		{
			"byteLength":579612,
			"uri":"TallThick_5.bin"
		}
	]
}
