{
	"asset":{
		"generator":"Khronos glTF Blender I/O v4.0.44",
		"version":"2.0"
	},
	"scene":0,
	"scenes":[
		{
			"name":"Scene",
			"nodes":[
				0
			]
		}
	],
	"nodes":[
		{
			"mesh":0,
			"name":"TallThick_4"
		}
	],
	"materials":[
		{
			"doubleSided":true,
			"name":"Bark_Pine",
			"normalTexture":{
				"index":0
			},
			"pbrMetallicRoughness":{
				"baseColorTexture":{
					"index":1
				},
				"metallicFactor":0
			}
		},
		{
			"alphaCutoff":0.20000000298023224,
			"alphaMode":"MASK",
			"doubleSided":true,
			"name":"Leaves_TallThick",
			"pbrMetallicRoughness":{
				"baseColorTexture":{
					"index":2
				},
				"metallicFactor":0
			}
		}
	],
	"meshes":[
		{
			"name":"tree.036",
			"primitives":[
				{
					"attributes":{
						"COLOR_0":0,
						"POSITION":1,
						"NORMAL":2,
						"TEXCOORD_0":3
					},
					"indices":4,
					"material":0
				},
				{
					"attributes":{
						"COLOR_0":5,
						"POSITION":6,
						"NORMAL":7,
						"TEXCOORD_0":8
					},
					"indices":9,
					"material":1
				}
			]
		}
	],
	"textures":[
		{
			"sampler":0,
			"source":0
		},
		{
			"sampler":0,
			"source":1
		},
		{
			"sampler":0,
			"source":2
		}
	],
	"images":[
		{
			"mimeType":"image/png",
			"name":"Bark_PineTree_Normal",
			"uri":"Bark_PineTree_Normal.png"
		},
		{
			"mimeType":"image/png",
			"name":"Bark_PineTree",
			"uri":"Bark_PineTree.png"
		},
		{
			"mimeType":"image/png",
			"name":"Leaves_TallThick_C",
			"uri":"Leaves_TallThick_C.png"
		}
	],
	"accessors":[
		{
			"bufferView":0,
			"componentType":5126,
			"count":6420,
			"type":"VEC4"
		},
		{
			"bufferView":1,
			"componentType":5126,
			"count":6420,
			"max":[
				2.0105533599853516,
				13.335390090942383,
				2.836912155151367
			],
			"min":[
				-4.824357509613037,
				-0.24244698882102966,
				-2.994124412536621
			],
			"type":"VEC3"
		},
		{
			"bufferView":2,
			"componentType":5126,
			"count":6420,
			"type":"VEC3"
		},
		{
			"bufferView":3,
			"componentType":5126,
			"count":6420,
			"type":"VEC2"
		},
		{
			"bufferView":4,
			"componentType":5123,
			"count":14736,
			"type":"SCALAR"
		},
		{
			"bufferView":5,
			"componentType":5126,
			"count":4784,
			"type":"VEC4"
		},
		{
			"bufferView":6,
			"componentType":5126,
			"count":4784,
			"max":[
				3.8067626953125,
				15.028402328491211,
				4.135601043701172
			],
			"min":[
				-6.314674377441406,
				2.772132396697998,
				-4.50971794128418
			],
			"type":"VEC3"
		},
		{
			"bufferView":7,
			"componentType":5126,
			"count":4784,
			"type":"VEC3"
		},
		{
			"bufferView":8,
			"componentType":5126,
			"count":4784,
			"type":"VEC2"
		},
		{
			"bufferView":9,
			"componentType":5123,
			"count":7176,
			"type":"SCALAR"
		}
	],
	"bufferViews":[
		{
			"buffer":0,
			"byteLength":102720,
			"byteOffset":0,
			"target":34962
		},
		{
			"buffer":0,
			"byteLength":77040,
			"byteOffset":102720,
			"target":34962
		},
		{
			"buffer":0,
			"byteLength":77040,
			"byteOffset":179760,
			"target":34962
		},
		{
			"buffer":0,
			"byteLength":51360,
			"byteOffset":256800,
			"target":34962
		},
		{
			"buffer":0,
			"byteLength":29472,
			"byteOffset":308160,
			"target":34963
		},
		{
			"buffer":0,
			"byteLength":76544,
			"byteOffset":337632,
			"target":34962
		},
		{
			"buffer":0,
			"byteLength":57408,
			"byteOffset":414176,
			"target":34962
		},
		{
			"buffer":0,
			"byteLength":57408,
			"byteOffset":471584,
			"target":34962
		},
		{
			"buffer":0,
			"byteLength":38272,
			"byteOffset":528992,
			"target":34962
		},
		{
			"buffer":0,
			"byteLength":14352,
			"byteOffset":567264,
			"target":34963
		}
	],
	"samplers":[
		{
			"magFilter":9729,
			"minFilter":9987
		}
	],
	"buffers":[
		{
			"byteLength":581616,
			"uri":"TallThick_4.bin"
		}
	]
}
