{
	"asset":{
		"generator":"Khronos glTF Blender I/O v4.0.44",
		"version":"2.0"
	},
	"scene":0,
	"scenes":[
		{
			"name":"Scene",
			"nodes":[
				0
			]
		}
	],
	"nodes":[
		{
			"mesh":0,
			"name":"TallThick_3"
		}
	],
	"materials":[
		{
			"doubleSided":true,
			"name":"Bark_Pine",
			"normalTexture":{
				"index":0
			},
			"pbrMetallicRoughness":{
				"baseColorTexture":{
					"index":1
				},
				"metallicFactor":0
			}
		},
		{
			"alphaCutoff":0.20000000298023224,
			"alphaMode":"MASK",
			"doubleSided":true,
			"name":"Leaves_TallThick",
			"pbrMetallicRoughness":{
				"baseColorTexture":{
					"index":2
				},
				"metallicFactor":0
			}
		}
	],
	"meshes":[
		{
			"name":"tree.035",
			"primitives":[
				{
					"attributes":{
						"COLOR_0":0,
						"POSITION":1,
						"NORMAL":2,
						"TEXCOORD_0":3
					},
					"indices":4,
					"material":0
				},
				{
					"attributes":{
						"COLOR_0":5,
						"POSITION":6,
						"NORMAL":7,
						"TEXCOORD_0":8
					},
					"indices":9,
					"material":1
				}
			]
		}
	],
	"textures":[
		{
			"sampler":0,
			"source":0
		},
		{
			"sampler":0,
			"source":1
		},
		{
			"sampler":0,
			"source":2
		}
	],
	"images":[
		{
			"mimeType":"image/png",
			"name":"Bark_PineTree_Normal",
			"uri":"Bark_PineTree_Normal.png"
		},
		{
			"mimeType":"image/png",
			"name":"Bark_PineTree",
			"uri":"Bark_PineTree.png"
		},
		{
			"mimeType":"image/png",
			"name":"Leaves_TallThick_C",
			"uri":"Leaves_TallThick_C.png"
		}
	],
	"accessors":[
		{
			"bufferView":0,
			"componentType":5126,
			"count":7352,
			"type":"VEC4"
		},
		{
			"bufferView":1,
			"componentType":5126,
			"count":7352,
			"max":[
				1.4521757364273071,
				13.421333312988281,
				2.4741973876953125
			],
			"min":[
				-4.589982986450195,
				-0.24244698882102966,
				-2.839207887649536
			],
			"type":"VEC3"
		},
		{
			"bufferView":2,
			"componentType":5126,
			"count":7352,
			"type":"VEC3"
		},
		{
			"bufferView":3,
			"componentType":5126,
			"count":7352,
			"type":"VEC2"
		},
		{
			"bufferView":4,
			"componentType":5123,
			"count":16776,
			"type":"SCALAR"
		},
		{
			"bufferView":5,
			"componentType":5126,
			"count":4784,
			"type":"VEC4"
		},
		{
			"bufferView":6,
			"componentType":5126,
			"count":4784,
			"max":[
				2.934652805328369,
				15.050676345825195,
				3.9413962364196777
			],
			"min":[
				-6.303066253662109,
				6.428709030151367,
				-4.485053062438965
			],
			"type":"VEC3"
		},
		{
			"bufferView":7,
			"componentType":5126,
			"count":4784,
			"type":"VEC3"
		},
		{
			"bufferView":8,
			"componentType":5126,
			"count":4784,
			"type":"VEC2"
		},
		{
			"bufferView":9,
			"componentType":5123,
			"count":7176,
			"type":"SCALAR"
		}
	],
	"bufferViews":[
		{
			"buffer":0,
			"byteLength":117632,
			"byteOffset":0,
			"target":34962
		},
		{
			"buffer":0,
			"byteLength":88224,
			"byteOffset":117632,
			"target":34962
		},
		{
			"buffer":0,
			"byteLength":88224,
			"byteOffset":205856,
			"target":34962
		},
		{
			"buffer":0,
			"byteLength":58816,
			"byteOffset":294080,
			"target":34962
		},
		{
			"buffer":0,
			"byteLength":33552,
			"byteOffset":352896,
			"target":34963
		},
		{
			"buffer":0,
			"byteLength":76544,
			"byteOffset":386448,
			"target":34962
		},
		{
			"buffer":0,
			"byteLength":57408,
			"byteOffset":462992,
			"target":34962
		},
		{
			"buffer":0,
			"byteLength":57408,
			"byteOffset":520400,
			"target":34962
		},
		{
			"buffer":0,
			"byteLength":38272,
			"byteOffset":577808,
			"target":34962
		},
		{
			"buffer":0,
			"byteLength":14352,
			"byteOffset":616080,
			"target":34963
		}
	],
	"samplers":[
		{
			"magFilter":9729,
			"minFilter":9987
		}
	],
	"buffers":[
		{
			"byteLength":630432,
			"uri":"TallThick_3.bin"
		}
	]
}
